<?xml version="1.0" encoding="UTF-8" standalone="no"?>
<!-- Created with Inkscape (http://www.inkscape.org/) -->

<svg
   version="1.1"
   id="svg1"
   width="470.64606"
   height="560.88153"
   viewBox="0 0 470.64605 560.88153"
   sodipodi:docname="6300828.eps"
   xmlns:inkscape="http://www.inkscape.org/namespaces/inkscape"
   xmlns:sodipodi="http://sodipodi.sourceforge.net/DTD/sodipodi-0.dtd"
   xmlns="http://www.w3.org/2000/svg"
   xmlns:svg="http://www.w3.org/2000/svg">
  <defs
     id="defs1" />
  <sodipodi:namedview
     id="namedview1"
     pagecolor="#505050"
     bordercolor="#eeeeee"
     borderopacity="1"
     inkscape:showpageshadow="0"
     inkscape:pageopacity="0"
     inkscape:pagecheckerboard="0"
     inkscape:deskcolor="#505050"
     showgrid="false" />
  <g
     id="g1"
     inkscape:groupmode="layer"
     inkscape:label="1"
     transform="translate(-102.03693,0.00131931)">
    <g
       id="group-R5">
      <path
         id="path46"
         d="M 765.277,312.191 V 4077.68 c 0,71.21 57.727,128.93 128.934,128.93 H 3328.14 c 71.2,0 128.93,-57.72 128.93,-128.93 V 312.191 c 0,-71.211 -57.73,-128.929 -128.93,-128.929 H 894.211 c -71.207,0 -128.934,57.718 -128.934,128.929"
         style="fill:#1e1e1e;fill-opacity:1;fill-rule:nonzero;stroke:none"
         transform="matrix(0.13333333,0,0,-0.13333333,0,560.88)" />
      <path
         id="path47"
         d="m 881.969,462.402 h 2461.52 v 3462.61 H 881.969 Z"
         style="fill:#ffffff;fill-opacity:1;fill-rule:nonzero;stroke:none"
         transform="matrix(0.13333333,0,0,-0.13333333,0,560.88)" />
      <path
         id="path48"
         d="m 1818.25,4034.78 v 16.84 c 0,6.9 5.6,12.5 12.51,12.5 h 560.8 c 6.9,0 12.5,-5.6 12.5,-12.5 v -16.84 c 0,-6.9 -5.6,-12.5 -12.5,-12.5 h -560.8 c -6.91,0 -12.51,5.6 -12.51,12.5"
         style="fill:#17282f;fill-opacity:1;fill-rule:nonzero;stroke:none"
         transform="matrix(0.13333333,0,0,-0.13333333,0,560.88)"
         inkscape:label="path48" />
      <path
         id="path49"
         d="m 2111.16,250.621 c -41.85,0 -75.76,33.91 -75.76,75.758 0,41.84 33.91,75.762 75.76,75.762 41.84,0 75.76,-33.922 75.76,-75.762 0,-41.848 -33.92,-75.758 -75.76,-75.758"
         style="fill:#17282f;fill-opacity:1;fill-rule:nonzero;stroke:none"
         transform="matrix(0.13333333,0,0,-0.13333333,0,560.88)" />
      <path
         id="path50"
         d="m 881.969,462.402 h 2461.52 v 3462.61 H 881.969 Z"
         style="fill:#ffffff;fill-opacity:1;fill-rule:nonzero;stroke:none"
         transform="matrix(0.13333333,0,0,-0.13333333,0,560.88)" />
      <path
         id="path51"
         d="m 2537.4,2859.81 c 0,-234.72 -190.28,-425 -425,-425 -234.72,0 -425,190.28 -425,425 0,234.72 190.28,425 425,425 234.72,0 425,-190.28 425,-425"
         style="fill:#999b9b;fill-opacity:1;fill-rule:nonzero;stroke:none"
         transform="matrix(0.13333333,0,0,-0.13333333,0,560.88)" />
      <path
         id="path52"
         d="M 2638.67,1931.3 H 1586.13 v 152.53 H 2638.67 V 1931.3"
         style="fill:#e7e8e5;fill-opacity:1;fill-rule:nonzero;stroke:none"
         transform="matrix(0.13333333,0,0,-0.13333333,0,560.88)" />
      <path
         id="path53"
         d="m 1748.74,2037.49 c 0,1.07 0.92,1.99 1.99,1.99 1.16,0 2.08,-0.92 2.08,-1.99 v -32.6 c 0,-10.69 8.71,-19.32 19.32,-19.4 10.78,0.08 19.49,8.71 19.49,19.4 v 32.6 c 0,1.07 0.91,1.99 1.99,1.99 1.16,0 2.07,-0.92 2.07,-1.99 v -32.6 c 0,-12.93 -10.53,-23.47 -23.55,-23.47 -12.86,0 -23.39,10.54 -23.39,23.47 v 32.6"
         style="fill:#999b9b;fill-opacity:1;fill-rule:nonzero;stroke:none"
         transform="matrix(0.13333333,0,0,-0.13333333,0,560.88)" />
      <path
         id="path54"
         d="m 1812.39,1989.88 c 0.66,0.84 1.91,1 2.81,0.25 2.82,-2.07 7.3,-4.72 12.45,-4.72 3.15,0 5.89,0.99 7.71,2.49 1.99,1.32 3.07,3.15 3.07,4.97 -0.08,1.91 -0.83,3.23 -2.9,4.98 -1.75,1.32 -4.65,2.32 -8.63,2.98 l -0.17,0.08 c -3.64,0.67 -6.88,1.49 -9.2,3.16 -2.57,1.49 -4.4,4.14 -4.4,7.29 0,3.24 1.83,6.05 4.4,7.96 2.4,1.67 5.8,2.74 9.95,2.74 5.23,0 8.96,-2.41 12.11,-4.39 0.91,-0.67 1.16,-1.91 0.58,-2.82 -0.58,-0.92 -1.82,-1.17 -2.74,-0.59 -2.98,2 -5.97,4.07 -9.95,4.07 -3.32,0 -5.97,-0.92 -7.71,-2.32 -1.66,-1.33 -2.57,-2.99 -2.57,-4.65 0,-1.65 0.74,-2.82 2.32,-4.06 1.82,-1.24 4.56,-2.24 8.29,-2.82 h 0.17 c 3.89,-0.58 7.05,-1.74 9.86,-3.32 2.66,-1.74 4.57,-4.89 4.57,-8.29 0,-3.4 -1.91,-6.14 -4.65,-8.21 -2.82,-2.07 -6.13,-3.24 -10.11,-3.24 -6.56,0.09 -11.7,3.16 -15.01,5.81 l -0.25,2.65"
         style="fill:#999b9b;fill-opacity:1;fill-rule:nonzero;stroke:none"
         transform="matrix(0.13333333,0,0,-0.13333333,0,560.88)" />
      <path
         id="path55"
         d="m 1857.31,2004.89 h 30.76 c -1.32,7.64 -7.79,13.19 -15.26,13.19 -7.63,0 -14.01,-5.47 -15.5,-13.19 z m -4.23,-3.23 c 0,11.28 8.79,20.4 19.73,20.4 10.45,0 18.75,-8.29 19.58,-18.9 v -0.09 -0.24 c 0,-1.09 -0.91,-1.83 -1.99,-1.83 h -33.34 c 0.41,-8.88 7.38,-15.59 15.75,-15.59 5.4,0 10.37,2.82 13.11,7.37 0.58,1.01 1.82,1.17 2.65,0.67 0.91,-0.67 1.25,-1.82 0.66,-2.82 -3.48,-5.55 -9.53,-9.21 -16.42,-9.21 -10.94,0 -19.73,9.13 -19.73,20.24"
         style="fill:#999b9b;fill-opacity:1;fill-rule:nonzero;stroke:none"
         transform="matrix(0.13333333,0,0,-0.13333333,0,560.88)" />
      <path
         id="path56"
         d="m 1904.7,2019.99 c 0,1.16 0.92,1.99 2.08,1.99 0.99,0 1.91,-0.83 1.91,-1.99 v -8.96 l 0.58,1 c 3.07,4.8 8.46,9.95 16.25,9.95 1.08,0 1.99,-0.83 1.99,-1.99 0,-1.08 -0.91,-1.99 -1.99,-1.99 -5.3,0 -8.96,-2.98 -11.77,-6.64 -2.74,-3.65 -4.31,-7.79 -4.9,-9.45 l -0.16,-0.67 v -17.83 c 0,-1.15 -0.92,-1.99 -1.91,-1.99 -1.16,0 -2.08,0.84 -2.08,1.99 v 36.58"
         style="fill:#999b9b;fill-opacity:1;fill-rule:nonzero;stroke:none"
         transform="matrix(0.13333333,0,0,-0.13333333,0,560.88)" />
      <path
         id="path57"
         d="m 1970.12,2005.47 c 0,6.89 -5.56,12.53 -12.53,12.53 -6.88,0 -12.44,-5.64 -12.6,-12.53 v -22.06 -0.33 l -0.42,-0.91 -1.49,-0.75 h -0.5 l -1.33,1.08 -0.08,0.25 -0.08,0.17 v 0.49 22.06 0.67 13.85 c 0,1.08 0.83,1.99 1.99,1.99 1.08,0 1.91,-0.91 1.91,-1.99 v -3.9 c 2.98,3.56 7.55,5.89 12.6,5.89 9.12,0 16.51,-7.47 16.51,-16.51 v -22.06 c 0,-1.15 -0.91,-1.99 -1.99,-1.99 -1.08,0 -1.99,0.84 -1.99,1.99 v 22.06"
         style="fill:#999b9b;fill-opacity:1;fill-rule:nonzero;stroke:none"
         transform="matrix(0.13333333,0,0,-0.13333333,0,560.88)" />
      <path
         id="path58"
         d="m 2021.99,2001.74 c 0,9.12 -6.88,16.43 -15.26,16.43 -8.29,0 -15.26,-7.31 -15.26,-16.43 0,-9.12 6.97,-16.33 15.26,-16.33 8.38,0 15.26,7.21 15.26,16.33 z m 3.99,18.33 v -36.66 c 0,-1.07 -0.92,-1.99 -1.99,-1.99 -1.08,0 -2,0.92 -2,1.99 v 6.06 c -3.48,-4.81 -9.04,-8.05 -15.26,-8.05 -10.69,0 -19.23,9.21 -19.23,20.32 0,11.12 8.54,20.32 19.23,20.32 6.22,0 11.78,-3.15 15.26,-7.96 v 5.97 c 0,1.17 0.92,1.99 2,1.99 1.07,0 1.99,-0.82 1.99,-1.99"
         style="fill:#999b9b;fill-opacity:1;fill-rule:nonzero;stroke:none"
         transform="matrix(0.13333333,0,0,-0.13333333,0,560.88)" />
      <path
         id="path59"
         d="m 2101.32,2005.47 c -0.17,6.89 -5.64,12.61 -12.6,12.61 -6.89,0 -12.53,-5.72 -12.53,-12.61 v -22.14 -0.25 l -0.08,-0.16 v -0.17 l -1,-1.07 -0.99,-0.26 h -0.25 -0.17 l -0.16,0.09 -0.5,0.25 -0.24,0.17 -0.26,0.24 -0.17,0.17 -0.08,0.16 -0.08,0.17 -0.09,0.25 v 0.25 0.16 22.14 c 0,6.89 -5.55,12.61 -12.52,12.61 -6.96,0 -12.52,-5.72 -12.52,-12.61 v -22.14 l -0.91,-1.57 -0.49,-0.25 -0.34,-0.09 h -0.25 -0.25 l -1.65,1.5 v 0.41 22.14 0.67 13.93 c 0,1.08 0.91,1.91 1.9,1.91 1.17,0 1.99,-0.83 1.99,-1.91 v -3.9 c 2.99,3.57 7.47,5.81 12.52,5.81 6.3,0 11.7,-3.48 14.52,-8.63 2.9,5.15 8.38,8.63 14.6,8.63 9.12,0 16.49,-7.38 16.49,-16.51 v -22.14 c 0,-0.99 -0.82,-1.91 -1.98,-1.91 -1.08,0 -1.91,0.92 -1.91,1.91 v 22.14"
         style="fill:#999b9b;fill-opacity:1;fill-rule:nonzero;stroke:none"
         transform="matrix(0.13333333,0,0,-0.13333333,0,560.88)" />
      <path
         id="path60"
         d="m 2123.33,2004.89 h 30.76 c -1.33,7.64 -7.79,13.19 -15.25,13.19 -7.64,0 -14.02,-5.47 -15.51,-13.19 z m -4.23,-3.23 c 0,11.28 8.79,20.4 19.74,20.4 10.44,0 18.74,-8.29 19.56,-18.9 v -0.09 -0.24 c 0,-1.09 -0.91,-1.83 -1.98,-1.83 h -33.35 c 0.42,-8.88 7.39,-15.59 15.77,-15.59 5.38,0 10.36,2.82 13.1,7.37 0.57,1.01 1.82,1.17 2.65,0.67 0.91,-0.67 1.24,-1.82 0.66,-2.82 -3.48,-5.55 -9.53,-9.21 -16.41,-9.21 -10.95,0 -19.74,9.13 -19.74,20.24"
         style="fill:#999b9b;fill-opacity:1;fill-rule:nonzero;stroke:none"
         transform="matrix(0.13333333,0,0,-0.13333333,0,560.88)" />
      <path
         id="path61"
         d="m 1674.71,2020.32 c 0,-8.06 -6.53,-14.58 -14.58,-14.58 -8.05,0 -14.58,6.52 -14.58,14.58 0,8.05 6.53,14.57 14.58,14.57 8.05,0.01 14.58,-6.52 14.58,-14.57"
         style="fill:#999b9b;fill-opacity:1;fill-rule:nonzero;stroke:none"
         transform="matrix(0.13333333,0,0,-0.13333333,0,560.88)" />
      <path
         id="path62"
         d="m 1685.35,1980.24 h -50.45 c 0.11,13.86 11.36,25 25.23,25 13.97,0 25.11,-11.14 25.22,-25"
         style="fill:#999b9b;fill-opacity:1;fill-rule:nonzero;stroke:none"
         transform="matrix(0.13333333,0,0,-0.13333333,0,560.88)" />
      <path
         id="path63"
         d="M 2638.67,1709.9 H 1586.13 v 152.53 H 2638.67 V 1709.9"
         style="fill:#e7e8e5;fill-opacity:1;fill-rule:nonzero;stroke:none"
         transform="matrix(0.13333333,0,0,-0.13333333,0,560.88)" />
      <path
         id="path64"
         d="m 1783.52,1804.17 c -9.58,-14.39 -21.61,-26.46 -36.02,-36.02 9.56,14.41 21.63,26.44 36.02,36.02"
         style="fill:#999b9b;fill-opacity:1;fill-rule:nonzero;stroke:none"
         transform="matrix(0.13333333,0,0,-0.13333333,0,560.88)" />
      <path
         id="path65"
         d="m 1747.5,1804.17 c 14.39,-9.58 26.46,-21.61 36.02,-36.02 -14.41,9.56 -26.44,21.63 -36.02,36.02"
         style="fill:#999b9b;fill-opacity:1;fill-rule:nonzero;stroke:none"
         transform="matrix(0.13333333,0,0,-0.13333333,0,560.88)" />
      <path
         id="path66"
         d="m 1790.98,1786.16 c -16.95,-3.4 -33.99,-3.43 -50.94,0 16.95,3.43 33.99,3.4 50.94,0"
         style="fill:#999b9b;fill-opacity:1;fill-rule:nonzero;stroke:none"
         transform="matrix(0.13333333,0,0,-0.13333333,0,560.88)" />
      <path
         id="path67"
         d="m 1765.51,1811.63 c 3.4,-16.95 3.43,-33.99 0,-50.94 -3.43,16.95 -3.4,33.99 0,50.94"
         style="fill:#999b9b;fill-opacity:1;fill-rule:nonzero;stroke:none"
         transform="matrix(0.13333333,0,0,-0.13333333,0,560.88)" />
      <path
         id="path68"
         d="m 1871.39,1804.17 c -9.58,-14.39 -21.61,-26.46 -36.02,-36.02 9.56,14.41 21.63,26.44 36.02,36.02"
         style="fill:#999b9b;fill-opacity:1;fill-rule:nonzero;stroke:none"
         transform="matrix(0.13333333,0,0,-0.13333333,0,560.88)" />
      <path
         id="path69"
         d="m 1835.37,1804.17 c 14.39,-9.58 26.46,-21.61 36.02,-36.02 -14.41,9.56 -26.44,21.63 -36.02,36.02"
         style="fill:#999b9b;fill-opacity:1;fill-rule:nonzero;stroke:none"
         transform="matrix(0.13333333,0,0,-0.13333333,0,560.88)" />
      <path
         id="path70"
         d="m 1878.85,1786.16 c -16.95,-3.4 -33.99,-3.43 -50.94,0 16.95,3.43 33.99,3.4 50.94,0"
         style="fill:#999b9b;fill-opacity:1;fill-rule:nonzero;stroke:none"
         transform="matrix(0.13333333,0,0,-0.13333333,0,560.88)" />
      <path
         id="path71"
         d="m 1853.38,1811.63 c 3.4,-16.95 3.43,-33.99 0,-50.94 -3.43,16.95 -3.4,33.99 0,50.94"
         style="fill:#999b9b;fill-opacity:1;fill-rule:nonzero;stroke:none"
         transform="matrix(0.13333333,0,0,-0.13333333,0,560.88)" />
      <path
         id="path72"
         d="m 1959.26,1804.17 c -9.58,-14.39 -21.61,-26.46 -36.02,-36.02 9.56,14.41 21.63,26.44 36.02,36.02"
         style="fill:#999b9b;fill-opacity:1;fill-rule:nonzero;stroke:none"
         transform="matrix(0.13333333,0,0,-0.13333333,0,560.88)" />
      <path
         id="path73"
         d="m 1923.24,1804.17 c 14.39,-9.58 26.46,-21.61 36.02,-36.02 -14.41,9.56 -26.44,21.63 -36.02,36.02"
         style="fill:#999b9b;fill-opacity:1;fill-rule:nonzero;stroke:none"
         transform="matrix(0.13333333,0,0,-0.13333333,0,560.88)" />
      <path
         id="path74"
         d="m 1966.72,1786.16 c -16.95,-3.4 -33.99,-3.43 -50.94,0 16.95,3.43 33.99,3.4 50.94,0"
         style="fill:#999b9b;fill-opacity:1;fill-rule:nonzero;stroke:none"
         transform="matrix(0.13333333,0,0,-0.13333333,0,560.88)" />
      <path
         id="path75"
         d="m 1941.25,1811.63 c 3.4,-16.95 3.43,-33.99 0,-50.94 -3.43,16.95 -3.4,33.99 0,50.94"
         style="fill:#999b9b;fill-opacity:1;fill-rule:nonzero;stroke:none"
         transform="matrix(0.13333333,0,0,-0.13333333,0,560.88)" />
      <path
         id="path76"
         d="m 2047.13,1804.17 c -9.58,-14.39 -21.61,-26.46 -36.02,-36.02 9.56,14.41 21.63,26.44 36.02,36.02"
         style="fill:#999b9b;fill-opacity:1;fill-rule:nonzero;stroke:none"
         transform="matrix(0.13333333,0,0,-0.13333333,0,560.88)" />
      <path
         id="path77"
         d="m 2011.11,1804.17 c 14.39,-9.58 26.46,-21.61 36.02,-36.02 -14.41,9.56 -26.44,21.63 -36.02,36.02"
         style="fill:#999b9b;fill-opacity:1;fill-rule:nonzero;stroke:none"
         transform="matrix(0.13333333,0,0,-0.13333333,0,560.88)" />
      <path
         id="path78"
         d="m 2054.59,1786.16 c -16.95,-3.4 -33.99,-3.43 -50.94,0 16.95,3.43 33.99,3.4 50.94,0"
         style="fill:#999b9b;fill-opacity:1;fill-rule:nonzero;stroke:none"
         transform="matrix(0.13333333,0,0,-0.13333333,0,560.88)" />
      <path
         id="path79"
         d="m 2029.12,1811.63 c 3.4,-16.95 3.43,-33.99 0,-50.94 -3.43,16.95 -3.4,33.99 0,50.94"
         style="fill:#999b9b;fill-opacity:1;fill-rule:nonzero;stroke:none"
         transform="matrix(0.13333333,0,0,-0.13333333,0,560.88)" />
      <path
         id="path80"
         d="m 1677.22,1802.58 v -18.43 H 1672 v 18.43 c 0,7.02 -5.31,12.71 -11.87,12.71 -6.56,0 -11.88,-5.69 -11.88,-12.71 v -18.43 h -5.21 v 18.43 c 0,10.03 7.67,18.21 17.09,18.21 9.42,0 17.09,-8.18 17.09,-18.21"
         style="fill:#999b9b;fill-opacity:1;fill-rule:nonzero;stroke:none"
         transform="matrix(0.13333333,0,0,-0.13333333,0,560.88)" />
      <path
         id="path81"
         d="m 1664.13,1762.07 h -8.46 l 2,9.44 c -1.19,0.74 -2,2.05 -2,3.57 0,2.33 1.9,4.21 4.23,4.21 2.33,0 4.23,-1.88 4.23,-4.21 0,-1.52 -0.81,-2.83 -2,-3.57 z m -27.75,28.89 v -39.43 h 47.5 v 39.43 h -47.5"
         style="fill:#999b9b;fill-opacity:1;fill-rule:nonzero;stroke:none"
         transform="matrix(0.13333333,0,0,-0.13333333,0,560.88)" />
      <path
         id="path82"
         d="m 1933.93,2200.97 v 68.89 c 0,3.51 2.8,6.43 6.42,6.43 3.62,0 6.54,-2.92 6.54,-6.43 v -62.35 h 31.65 c 3.38,0 6.42,-2.92 6.42,-6.54 0,-3.51 -3.04,-6.43 -6.42,-6.43 h -37.84 -0.23 -0.12 c -3.62,0 -6.42,2.92 -6.42,6.43"
         style="fill:#17282f;fill-opacity:1;fill-rule:nonzero;stroke:none"
         transform="matrix(0.13333333,0,0,-0.13333333,0,560.88)" />
      <path
         id="path83"
         d="m 2057.97,2236.59 c 0,7.93 -3.15,15.29 -7.94,20.43 -4.9,5.25 -11.44,8.29 -18.44,8.29 -7.48,0 -14.02,-3.04 -18.92,-8.29 -4.91,-5.14 -7.94,-12.5 -7.94,-20.43 0,-7.94 3.03,-15.3 7.94,-20.32 4.9,-5.26 11.44,-8.42 18.92,-8.42 7,0 13.54,3.16 18.44,8.42 4.79,5.02 7.94,12.38 7.94,20.32 z m 1.52,29.54 c 7.25,-7.71 11.79,-17.98 11.79,-29.54 0,-11.57 -4.54,-21.96 -11.79,-29.55 -6.89,-7.59 -17.16,-12.5 -27.9,-12.5 -11.22,0 -21.49,4.91 -28.62,12.5 -7.24,7.59 -11.56,17.98 -11.56,29.55 0,11.56 4.32,21.83 11.56,29.54 7.13,7.71 17.4,12.5 28.62,12.5 10.74,0 21.01,-4.79 27.9,-12.5"
         style="fill:#17282f;fill-opacity:1;fill-rule:nonzero;stroke:none"
         transform="matrix(0.13333333,0,0,-0.13333333,0,560.88)" />
      <path
         id="path84"
         d="m 2090.71,2236.47 c 0,23.47 19.39,42.16 43.1,42.16 9.92,0 19.38,-3.4 26.62,-9.12 3.04,-2.22 3.5,-6.54 1.28,-9.46 -2.22,-2.8 -6.54,-3.38 -9.46,-1.04 -5.02,3.84 -11.44,6.3 -18.44,6.3 -8.42,0 -15.77,-3.15 -21.02,-8.52 -5.49,-5.26 -8.76,-12.38 -8.76,-20.32 0,-7.71 3.27,-14.83 8.76,-20.09 5.25,-5.37 12.6,-8.53 21.02,-8.53 5.83,0 11.32,1.76 15.99,4.44 v 16.01 h -16.7 c -3.62,0 -6.65,3.03 -6.65,6.65 0,3.74 3.03,6.54 6.65,6.54 h 23.01 0.12 0.11 c 3.74,0 6.77,-2.8 6.77,-6.54 v -25.81 l -0.35,-1.98 -0.23,-0.59 v -0.11 c -0.35,-1.06 -1.05,-1.99 -2.22,-2.8 -7.36,-5.73 -16.58,-9.12 -26.5,-9.12 -23.71,0 -43.1,18.57 -43.1,41.93"
         style="fill:#17282f;fill-opacity:1;fill-rule:nonzero;stroke:none"
         transform="matrix(0.13333333,0,0,-0.13333333,0,560.88)" />
      <path
         id="path85"
         d="m 2190.25,2269.86 c 0,3.63 2.8,6.43 6.42,6.43 3.5,0 6.54,-2.8 6.54,-6.43 v -68.89 c 0,-3.62 -3.04,-6.43 -6.54,-6.43 -3.62,0 -6.42,2.81 -6.42,6.43 v 68.89"
         style="fill:#17282f;fill-opacity:1;fill-rule:nonzero;stroke:none"
         transform="matrix(0.13333333,0,0,-0.13333333,0,560.88)" />
      <path
         id="path86"
         d="m 2237.91,2200.97 c 0,-3.51 -2.92,-6.43 -6.31,-6.43 -3.62,0 -6.42,2.92 -6.42,6.43 v 67.85 0.11 c -0.11,1.99 0.82,4.08 2.57,5.37 2.92,1.99 6.89,1.41 8.88,-1.4 l 37.72,-52.19 v 48.11 c 0,3.38 2.8,6.3 6.3,6.3 3.51,0 6.42,-2.92 6.42,-6.3 v -67.85 c 0,-3.51 -2.91,-6.43 -6.42,-6.43 -1.87,0 -3.62,0.94 -4.79,2.34 l -0.58,0.7 -37.37,51.85 v -48.46"
         style="fill:#17282f;fill-opacity:1;fill-rule:nonzero;stroke:none"
         transform="matrix(0.13333333,0,0,-0.13333333,0,560.88)" />
      <path
         id="path87"
         d="m 2286.81,1508.17 h -348.83 v 108.46 h 348.83 v -108.46"
         style="fill:#333d55;fill-opacity:1;fill-rule:nonzero;stroke:none"
         transform="matrix(0.13333333,0,0,-0.13333333,0,560.88)" />
      <path
         id="path88"
         d="m 2023.16,1546.17 v 34.5 c 0,1.75 1.41,3.21 3.22,3.21 1.81,0 3.27,-1.46 3.27,-3.21 v -31.22 h 15.85 c 1.7,0 3.21,-1.46 3.21,-3.28 0,-1.75 -1.51,-3.21 -3.21,-3.21 h -18.94 -0.12 -0.06 c -1.81,0 -3.22,1.46 -3.22,3.21"
         style="fill:#ffffff;fill-opacity:1;fill-rule:nonzero;stroke:none"
         transform="matrix(0.13333333,0,0,-0.13333333,0,560.88)" />
      <path
         id="path89"
         d="m 2085.23,1564 c 0,3.97 -1.59,7.66 -3.99,10.23 -2.45,2.63 -5.72,4.15 -9.22,4.15 -3.74,0 -7.02,-1.52 -9.48,-4.15 -2.45,-2.57 -3.98,-6.26 -3.98,-10.23 0,-3.97 1.53,-7.65 3.98,-10.17 2.46,-2.63 5.74,-4.2 9.48,-4.2 3.5,0 6.77,1.57 9.22,4.2 2.4,2.52 3.99,6.2 3.99,10.17 z m 0.75,14.8 c 3.62,-3.86 5.91,-9.01 5.91,-14.8 0,-5.78 -2.29,-10.99 -5.91,-14.79 -3.45,-3.8 -8.59,-6.25 -13.96,-6.25 -5.62,0 -10.76,2.45 -14.33,6.25 -3.63,3.8 -5.79,9.01 -5.79,14.79 0,5.79 2.16,10.94 5.79,14.8 3.57,3.85 8.71,6.24 14.33,6.24 5.37,0 10.51,-2.39 13.96,-6.24"
         style="fill:#ffffff;fill-opacity:1;fill-rule:nonzero;stroke:none"
         transform="matrix(0.13333333,0,0,-0.13333333,0,560.88)" />
      <path
         id="path90"
         d="m 2101.56,1563.95 c 0,11.75 9.7,21.09 21.57,21.09 4.97,0 9.7,-1.69 13.33,-4.55 1.52,-1.11 1.75,-3.28 0.64,-4.74 -1.11,-1.4 -3.28,-1.69 -4.73,-0.53 -2.52,1.94 -5.73,3.16 -9.24,3.16 -4.2,0 -7.89,-1.57 -10.52,-4.27 -2.75,-2.63 -4.39,-6.19 -4.39,-10.16 0,-3.86 1.64,-7.43 4.39,-10.06 2.63,-2.69 6.32,-4.26 10.52,-4.26 2.92,0 5.66,0.87 8.01,2.22 v 8.01 h -8.36 c -1.82,0 -3.33,1.51 -3.33,3.33 0,1.87 1.51,3.27 3.33,3.27 h 11.51 0.06 0.06 c 1.87,0 3.39,-1.4 3.39,-3.27 v -12.93 l -0.17,-0.99 -0.12,-0.29 v -0.06 l -1.12,-1.41 c -3.68,-2.86 -8.29,-4.55 -13.26,-4.55 -11.87,0 -21.57,9.29 -21.57,20.99"
         style="fill:#ffffff;fill-opacity:1;fill-rule:nonzero;stroke:none"
         transform="matrix(0.13333333,0,0,-0.13333333,0,560.88)" />
      <path
         id="path91"
         d="m 2151.32,1580.67 c 0,1.8 1.41,3.21 3.22,3.21 1.75,0 3.27,-1.41 3.27,-3.21 v -34.5 c 0,-1.81 -1.52,-3.21 -3.27,-3.21 -1.81,0 -3.22,1.4 -3.22,3.21 v 34.5"
         style="fill:#ffffff;fill-opacity:1;fill-rule:nonzero;stroke:none"
         transform="matrix(0.13333333,0,0,-0.13333333,0,560.88)" />
      <path
         id="path92"
         d="m 2175.17,1546.17 c 0,-1.75 -1.47,-3.21 -3.16,-3.21 -1.81,0 -3.22,1.46 -3.22,3.21 v 33.97 0.05 c -0.06,1 0.41,2.05 1.28,2.7 1.47,0.99 3.46,0.69 4.45,-0.71 l 18.88,-26.13 v 24.09 c 0,1.69 1.4,3.16 3.16,3.16 1.75,0 3.21,-1.47 3.21,-3.16 v -33.97 c 0,-1.75 -1.46,-3.21 -3.21,-3.21 -0.93,0 -1.81,0.46 -2.4,1.17 l -0.29,0.35 -18.7,25.96 v -24.27"
         style="fill:#ffffff;fill-opacity:1;fill-rule:nonzero;stroke:none"
         transform="matrix(0.13333333,0,0,-0.13333333,0,560.88)" />
      <path
         id="path93"
         d="m 2359,2513.72 c -8.8,-6.3 -17.81,-12.2 -27,-17.9 -22,-13.2 -45.3,-24.6 -69.6,-33.7 -5.7,-2.2 -11.5,-4.2 -17.3,-6.2 -13.1,-4.3 -26.6,-8 -40.2,-11 l -0.3,-0.1 c -12,-2.6 -24.2,-4.8 -36.6,-6.4 -16.3,24.3 -29.6,45.4 -38.9,61.7 -6.2,10.8 -14.4,25.9 -22.7,42.9 -25.7,52.1 -52.8,122.2 -27.7,141.3 l 1.4,1 2,1.1 1.3,0.6 c 2.1,1 4.6,1.6 7.3,1.9 3.1,0.5 6.6,0.5 10.6,0.1 12.7,-1.2 29.7,-6.9 51.9,-18.2 v -0.1 c 4.7,-2.3 9.5,-4.9 14.7,-7.8 l 2,-1.1 c 42.7,-24.2 115.8,-85 189.1,-148.1"
         style="fill:#f9a8b6;fill-opacity:1;fill-rule:nonzero;stroke:none"
         transform="matrix(0.13333333,0,0,-0.13333333,0,560.88)" />
      <path
         id="path94"
         d="m 2374,2524.92 c -4.9,-3.9 -9.9,-7.6 -15,-11.2 -8.8,-6.3 -17.81,-12.2 -27,-17.9 -22,-13.2 -45.3,-24.6 -69.6,-33.7 -5.7,-2.2 -11.5,-4.2 -17.3,-6.2 -13.1,-4.3 -26.6,-8 -40.2,-11 l -0.3,-0.1 c -12,-2.6 -24.2,-4.8 -36.6,-6.4 -2.4,-0.3 -4.9,-0.6 -7.4,-0.9 -26.1,41 -48.1,78 -63.4,106.9 v 0.1 c -0.9,1.7 -1.8,3.3 -2.6,4.9 -5.4,10.5 -10.1,20.4 -14.1,29.7 -3,7 -5.6,13.7 -7.8,20.1 -1.4,4.2 -2.7,8.3 -3.9,12.3 -1,3.5 -1.8,6.8 -2.6,10 -0.7,3.3 -1.3,6.5 -1.8,9.6 -1.4,8.3 -1.8,15.8 -1.2,22.4 0.4,6 1.6,11.3 3.5,15.8 1,2.4 2.1,4.6 3.5,6.6 0.7,1 1.4,1.9 2.1,2.8 0.8,0.9 1.6,1.8 2.5,2.6 0.8,0.8 1.7,1.5 2.7,2.2 l 1.2,0.8 1.4,1 2,1.1 1.3,0.6 0.3,0.2 c 2,0.9 4.1,1.7 6.4,2.3 12.99,3.4 30.5,1.5 51.6,-5.8 l 0.1,-0.1 c 8.6,-2.9 17.9,-6.7 27.7,-11.5 l 0.1,-0.1 c 15.6,-7.5 32.5,-17.4 50.8,-29.6 45.5,-30.4 100.2,-73.5 153.6,-117.5"
         style="fill:#333d55;fill-opacity:1;fill-rule:nonzero;stroke:none"
         transform="matrix(0.13333333,0,0,-0.13333333,0,560.88)" />
      <path
         id="path95"
         d="m 2187.5,2615.42 c -2.4,2.3 -4.8,4.5 -7.4,6.7 h -0.1 l -2.7,2.2 -2,1.5 c -1.1,0.9 -2.2,1.6 -3.4,2.3 -1.1,0.8 -2.2,1.5 -3.4,2.2 h -0.1 l -2,1.1 -1.3,0.6 v 0.1 c -1.4,0.7 -2.8,1.3 -4.2,1.9 1,-2.5 2.2,-4.8 3.4,-7 4.2,-7.4 9.6,-13.7 15.2,-19.6 2.2,-2.1 4.4,-4.1 6.7,-6.1 1.8,-1.5 3.6,-2.9 5.5,-4.3 l 0.3,-0.2 0.1,-0.1 c 4.3,-3.1 8.9,-5.8 14,-7.9 -4.4,10.6 -11.2,18.9 -18.6,26.6 m 0,0 c -2.4,2.3 -4.8,4.5 -7.4,6.7 h -0.1 l -2.7,2.2 -2,1.5 c -1.1,0.9 -2.2,1.6 -3.4,2.3 -1.1,0.8 -2.2,1.5 -3.4,2.2 h -0.1 l -2,1.1 -1.3,0.6 v 0.1 c -1.4,0.7 -2.8,1.3 -4.2,1.9 1,-2.5 2.2,-4.8 3.4,-7 4.2,-7.4 9.6,-13.7 15.2,-19.6 2.2,-2.1 4.4,-4.1 6.7,-6.1 1.8,-1.5 3.6,-2.9 5.5,-4.3 l 0.3,-0.2 0.1,-0.1 c 4.3,-3.1 8.9,-5.8 14,-7.9 -4.4,10.6 -11.2,18.9 -18.6,26.6"
         style="fill:#ffffff;fill-opacity:1;fill-rule:nonzero;stroke:none"
         transform="matrix(0.13333333,0,0,-0.13333333,0,560.88)" />
      <path
         id="path96"
         d="m 2160.6,2437.52 c -26.1,41 -48.1,78 -63.4,106.9 v 0.1 0 c -0.9,1.7 -1.8,3.3 -2.6,4.9 -5.4,10.5 -10.1,20.4 -14.1,29.7 -3,7 -5.6,13.7 -7.8,20.1 -1.4,4.2 -2.7,8.3 -3.9,12.3 -1,3.5 -1.8,6.8 -2.6,10 -0.7,3.3 -1.3,6.5 -1.8,9.6 v 0 c -1.3,8.3 -1.7,15.8 -1.2,22.4 0.4,6 1.6,11.3 3.5,15.8 1,2.4 2.1,4.6 3.5,6.6 0.7,1 1.4,1.9 2.1,2.8 0.8,0.9 1.6,1.8 2.5,2.6 0.8,0.8 1.7,1.5 2.7,2.2 l 1.2,0.8 1.4,1 2,1.1 1.3,0.6 0.3,0.2 c 2,0.9 4.2,1.6 6.5,2.2 2.7,0.7 5.7,1.2 8.9,1.4 l 2.2,-1.8 35.4,-29.8 0.2,-0.1 28.7,-24 13.7,-11.5 152.7,-127.8 c -22,-13.2 -45.3,-24.6 -69.6,-33.7 -5.7,-2.2 -11.5,-4.2 -17.3,-6.2 -13.1,-4.3 -26.6,-8 -40.2,-11 l -0.3,-0.1 c -12,-2.6 -24.2,-4.8 -36.6,-6.4 -2.4,-0.3 -4.9,-0.6 -7.4,-0.9 m 0.3,196.5 c 1,-2.5 2.2,-4.8 3.4,-7 4.2,-7.4 9.6,-13.7 15.2,-19.6 2.2,-2.1 4.4,-4.1 6.7,-6.1 1.8,-1.5 3.6,-2.9 5.5,-4.3 l 0.3,-0.2 0.1,-0.1 c 4.3,-3.1 8.9,-5.8 14,-7.9 v 0 0 c -4.4,10.6 -11.2,18.9 -18.6,26.6 -2.4,2.3 -4.8,4.5 -7.4,6.7 h -0.1 l -2.7,2.2 -2,1.5 c -1.1,0.9 -2.2,1.6 -3.4,2.3 -1.1,0.8 -2.2,1.5 -3.4,2.2 h -0.1 l -2,1.1 -1.3,0.6 v 0.1 0 c -1.4,0.7 -2.8,1.3 -4.2,1.9 v 0 0"
         style="fill:#1e1e36;fill-opacity:1;fill-rule:nonzero;stroke:none"
         transform="matrix(0.13333333,0,0,-0.13333333,0,560.88)" />
      <path
         id="path97"
         d="m 2206.1,2588.82 c -5.1,2.1 -9.7,4.8 -14,7.9 l -0.1,0.1 -0.3,0.2 c -1.9,1.4 -3.7,2.8 -5.5,4.3 -2.3,2 -4.5,4 -6.7,6.1 -5.6,5.9 -11,12.2 -15.2,19.6 -1.2,2.2 -2.4,4.5 -3.4,7 v 0 0 c 1.4,-0.6 2.8,-1.2 4.2,-1.9 v 0 0 -0.1 l 1.3,-0.6 2,-1.1 h 0.1 c 1.2,-0.7 2.3,-1.4 3.4,-2.2 1.2,-0.7 2.3,-1.4 3.4,-2.3 l 2,-1.5 2.7,-2.2 h 0.1 c 2.6,-2.2 5,-4.4 7.4,-6.7 7.4,-7.7 14.2,-16 18.6,-26.6 v 0 0"
         style="fill:#e0e1de;fill-opacity:1;fill-rule:nonzero;stroke:none"
         transform="matrix(0.13333333,0,0,-0.13333333,0,560.88)" />
      <path
         id="path98"
         d="m 2245.1,2455.92 c -13.1,-4.3 -26.6,-8 -40.2,-11 l -0.3,-0.1 c -12,-2.6 -24.2,-4.8 -36.6,-6.4 -2.4,-0.3 -4.9,-0.6 -7.4,-0.9 -15.8,-1.8 -31.9,-2.7 -48.2,-2.7 -48,0 -94.2,8 -137.3,22.7 l -1.1,0.3 -1,0.4 c -1.6,0.6 -3.2,1.1 -4.8,1.7 -42.3,15.3 -81.5,37.1 -116.4,64.2 11.9,20.9 22.9,39.3 33.2,55.4 7.4,11.6 14.3,22 20.9,31.3 l 0.1,0.2 0.1,0.1 c 34.9,49.8 59,70.2 77.8,80.1 1.2,0.6 2.4,1.2 3.5,1.7 1.4,0.8 2.8,1.4 4.1,1.9 2.5,1.1 4.9,1.9 7.2,2.7 20.2,6.8 50.4,10.3 79.3,7.7 24.5,-2.2 48.1,-8.8 63.7,-21.5 l 0.1,-0.1 c 4.5,-3.7 8.4,-8 11.4,-12.8 v -0.1 c 3.5,-5.5 6.9,-11.2 10.2,-17.1 1.2,-2.1 2.4,-4.2 3.6,-6.4 4.2,-7.6 8.3,-15.4 12.3,-23.6 l 0.7,-1.5 h 0.1 c 2,-4.1 4,-8.2 6,-12.5 2,-4.2 4,-8.4 5.9,-12.8 l 0.1,-0.1 c 18.5,-41 35.9,-87.7 51.9,-137.4 0.4,-1.1 0.7,-2.2 1.1,-3.4"
         style="fill:#333d55;fill-opacity:1;fill-rule:nonzero;stroke:none"
         transform="matrix(0.13333333,0,0,-0.13333333,0,560.88)" />
      <path
         id="path99"
         d="m 2186.1,2609.62 c -2,4.2 -4,8.4 -6.1,12.5 l -2.7,2.2 -2,1.5 c -1.1,0.9 -2.2,1.6 -3.4,2.3 -1.1,0.8 -2.2,1.5 -3.4,2.2 h -0.1 l -2,1.1 -1.3,0.7 c -1.4,0.7 -2.8,1.3 -4.2,1.9 1,-2.5 2.2,-4.8 3.4,-7 4.2,-7.4 9.6,-13.7 15.2,-19.6 2.2,-2.1 4.4,-4.1 6.7,-6.1 1.8,-1.5 3.6,-2.9 5.5,-4.3 l 0.3,-0.2 c -1.9,4.4 -3.9,8.6 -5.9,12.8 z m 0,0 c -2,4.2 -4,8.4 -6.1,12.5 l -2.7,2.2 -2,1.5 c -1.1,0.9 -2.2,1.6 -3.4,2.3 -1.1,0.8 -2.2,1.5 -3.4,2.2 h -0.1 l -2,1.1 -1.3,0.7 c -1.4,0.7 -2.8,1.3 -4.2,1.9 1,-2.5 2.2,-4.8 3.4,-7 4.2,-7.4 9.6,-13.7 15.2,-19.6 2.2,-2.1 4.4,-4.1 6.7,-6.1 1.8,-1.5 3.6,-2.9 5.5,-4.3 l 0.3,-0.2 c -1.9,4.4 -3.9,8.6 -5.9,12.8 z m -267.7,9.4 c -1.5,-0.7 -2.9,-1.6 -4.3,-2.4 -1.4,-0.8 -2.8,-1.7 -4.1,-2.7 l -1.8,-1.3 -2.1,-1.5 -0.1,-0.1 -0.1,-0.2 -0.4,-0.3 c -3.2,-2.5 -6.1,-5.2 -9,-7.9 -7.4,-7.7 -14.2,-16 -18.7,-26.6 2.5,1 4.9,2.2 7.2,3.5 7.3,4.1 13.6,9.5 19.4,15.1 7.4,7.6 14.2,16 18.6,26.6 -1.6,-0.7 -3.1,-1.4 -4.6,-2.2 z m 181.6,-145.6 c -10.6,-0.2 -21.2,-1.2 -31.9,-5.6 10.7,-4.5 21.3,-5.4 31.9,-5.6 10.7,0.2 21.4,1.2 32,5.6 -10.6,4.4 -21.3,5.4 -32,5.6"
         style="fill:#ffffff;fill-opacity:1;fill-rule:nonzero;stroke:none"
         transform="matrix(0.13333333,0,0,-0.13333333,0,560.88)" />
      <path
         id="path100"
         d="m 2014.2,2620.52 c -2.8,-23.1 -9.5,-51.9 -20.6,-86.8 -8.6,-26.8 -17.1,-51.3 -25.4,-73.8 -42.3,15.3 -81.5,37.1 -116.4,64.2 -8.4,6.5 -16.6,13.4 -24.4,20.5 14.2,18.9 28.5,37.2 42.7,54.7 47.2,58.1 87.6,89.6 113.8,91.9 1,0.1 2,0.2 3,0.2 22.3,0 33.1,-23 27.3,-70.9"
         style="fill:#f9a8b6;fill-opacity:1;fill-rule:nonzero;stroke:none"
         transform="matrix(0.13333333,0,0,-0.13333333,0,560.88)" />
      <path
         id="path101"
         d="m 2019.8,2612.12 c -2.8,-25.6 -8.3,-48.5 -9.6,-53.6 -4.7,-18.9 -14.1,-45.4 -25.6,-74.7 v -0.1 c -3.4,-8.4 -7,-17.1 -10.6,-25.9 l -1,0.4 c -1.6,0.6 -3.2,1.1 -4.8,1.7 -42.3,15.3 -81.5,37.1 -116.4,64.2 -8.4,6.5 -16.6,13.4 -24.4,20.5 -2.8,2.5 -5.5,5 -8.1,7.5 30.3,38.6 59.6,71 86,94.3 38.6,34 64.9,47.6 82.6,48.4 1.3,0.1 2.5,0.1 3.6,0 30.5,-1.7 32.4,-45.2 28.3,-82.7"
         style="fill:#333d55;fill-opacity:1;fill-rule:nonzero;stroke:none"
         transform="matrix(0.13333333,0,0,-0.13333333,0,560.88)" />
      <path
         id="path102"
         d="m 1918.4,2619.02 c -1.5,-0.7 -2.9,-1.6 -4.3,-2.4 -1.4,-0.8 -2.8,-1.7 -4.1,-2.7 l -1.8,-1.3 -2.3,-1.8 -0.4,-0.3 c -3.2,-2.5 -6.1,-5.2 -9,-7.9 -7.4,-7.7 -14.2,-16 -18.7,-26.6 2.5,1 4.9,2.2 7.2,3.5 7.3,4.1 13.6,9.5 19.4,15.1 7.4,7.6 14.2,16 18.6,26.6 -1.6,-0.7 -3.1,-1.4 -4.6,-2.2"
         style="fill:#ffffff;fill-opacity:1;fill-rule:nonzero;stroke:none"
         transform="matrix(0.13333333,0,0,-0.13333333,0,560.88)" />
      <path
         id="path103"
         d="m 1984.6,2483.82 v -0.3 c -3.1,-8.7 -6.3,-17.4 -9.5,-26 l -1.1,0.3 -1,0.4 c 3.7,8.5 7.4,17 10.9,25.6 h 0.7"
         style="fill:#17282f;fill-opacity:1;fill-rule:nonzero;stroke:none"
         transform="matrix(0.13333333,0,0,-0.13333333,0,560.88)" />
      <path
         id="path104"
         d="m 2109.7,2542.97 c -45.1,-1.69 -106.09,78.75 -124.78,137.88 -1.26,4.06 11.96,41.52 25.86,87.8 8.33,28.12 16.94,59.62 22.72,88.93 1.16,6.03 175.05,-80.92 175.05,-80.92 0,0 -30.19,-57.89 -39.96,-109.06 -0.76,-4.28 -1.12,-8.34 -1.1,-12.27 l -0.13,-2.05 c -0.78,-23.59 -14.07,-108.65 -57.66,-110.31"
         style="fill:#f9a8b6;fill-opacity:1;fill-rule:nonzero;stroke:none"
         transform="matrix(0.13333333,0,0,-0.13333333,0,560.88)" />
      <path
         id="path105"
         d="m 2044.65,2854.59 c -1.24,-51.24 5.97,-177.06 103.64,-198.63 6.8,-1.51 13.14,-2.41 19.01,-2.69 l 0.17,2.06 c 0.03,3.96 0.33,7.98 1.06,12.25 9.8,51.26 40.03,109.13 40.03,109.13 0,0 -125.44,62.72 -163.91,77.88"
         style="fill:#17282f;fill-opacity:1;fill-rule:nonzero;stroke:none"
         transform="matrix(0.13333333,0,0,-0.13333333,0,560.88)" />
      <path
         id="path106"
         d="m 2002.22,3050.45 c -18.87,-66.86 20.28,-258.03 68.43,-299.82 69.82,-60.58 182.09,-64.14 233.05,19.31 49.4,80.9 -6.02,329.14 -59.62,366.9 -78.96,55.63 -213.99,12.37 -241.86,-86.39"
         style="fill:#f9a8b6;fill-opacity:1;fill-rule:nonzero;stroke:none"
         transform="matrix(0.13333333,0,0,-0.13333333,0,560.88)" />
      <path
         id="path107"
         d="m 2169.56,2929.68 -0.71,-1.37 c 3.46,-12.68 5.29,-27.8 -5.26,-34.81 l 0.28,-0.69 c 13.64,5.37 11.01,25.41 5.69,36.87"
         style="fill:#17282f;fill-opacity:1;fill-rule:nonzero;stroke:none"
         transform="matrix(0.13333333,0,0,-0.13333333,0,560.88)" />
      <path
         id="path108"
         d="m 2154.95,2940.29 c -20.93,-3.35 -12.68,-44.97 6.72,-41.86 19.08,3.06 10.83,44.68 -6.72,41.86"
         style="fill:#17282f;fill-opacity:1;fill-rule:nonzero;stroke:none"
         transform="matrix(0.13333333,0,0,-0.13333333,0,560.88)" />
      <path
         id="path109"
         d="m 2243.48,2944.53 1.22,-0.93 c 2.15,-12.98 6.79,-27.47 19.3,-29.44 l 0.04,-0.74 c -14.63,-0.83 -20.6,18.48 -20.56,31.11"
         style="fill:#17282f;fill-opacity:1;fill-rule:nonzero;stroke:none"
         transform="matrix(0.13333333,0,0,-0.13333333,0,560.88)" />
      <path
         id="path110"
         d="m 2252.32,2960.28 c 20.42,5.69 30.3,-35.58 11.38,-40.84 -18.63,-5.19 -28.5,36.08 -11.38,40.84"
         style="fill:#17282f;fill-opacity:1;fill-rule:nonzero;stroke:none"
         transform="matrix(0.13333333,0,0,-0.13333333,0,560.88)" />
      <path
         id="path111"
         d="m 2135.43,2960.75 c 5.39,2.53 9.95,5.76 15.03,8.81 5.73,3.44 10.65,5.59 13.62,11.9 1.6,3.38 -0.33,8.53 -3.48,10.39 -7.31,4.32 -15.38,1.85 -22.45,-2.01 -7.67,-4.19 -12.51,-9.38 -15.81,-17.46 -3.19,-7.82 5.97,-14.95 13.09,-11.63"
         style="fill:#17282f;fill-opacity:1;fill-rule:nonzero;stroke:none"
         transform="matrix(0.13333333,0,0,-0.13333333,0,560.88)" />
      <path
         id="path112"
         d="m 2267.66,2977.18 c -5.92,-0.66 -11.49,-0.28 -17.41,-0.33 -6.69,-0.05 -12.01,-0.78 -17.83,3.06 -3.13,2.05 -4.16,7.45 -2.45,10.68 3.99,7.5 12.16,9.6 20.21,9.99 8.72,0.43 15.56,-1.48 22.58,-6.66 6.81,-5.01 2.72,-15.87 -5.1,-16.74"
         style="fill:#17282f;fill-opacity:1;fill-rule:nonzero;stroke:none"
         transform="matrix(0.13333333,0,0,-0.13333333,0,560.88)" />
      <path
         id="path113"
         d="m 2177.53,2816.74 c 2.63,-3.53 5.08,-8.2 9.73,-9.33 4.46,-1.08 10.08,0.13 14.47,1.09 l 0.46,-0.76 c -4.15,-4.45 -11.73,-6.47 -17.59,-4.47 -5.72,1.94 -7.83,7.48 -8.42,13.08 l 1.35,0.39"
         style="fill:#17282f;fill-opacity:1;fill-rule:nonzero;stroke:none"
         transform="matrix(0.13333333,0,0,-0.13333333,0,560.88)" />
      <path
         id="path114"
         d="m 2188.58,2854.41 c 9.43,-9.76 21.26,-13.77 33.17,-13.72 5.33,-0.01 10.75,0.88 15.94,2.41 1.03,0.23 2.05,0.55 2.95,0.95 0.91,0.3 1.74,0.58 2.73,0.99 1.47,0.52 2.05,1.93 2.02,3.4 l -0.03,0.09 -0.38,1.3 -0.02,0.09 -0.25,1.13 c -1.69,9.98 -5.65,24.89 -5.65,24.89 3.99,-1.1 24.13,-5.75 22.81,-0.62 -11.08,42.42 -23.4,89.6 -43.39,129.47 -0.59,1.35 -2.69,0.59 -2.29,-0.8 9.04,-41.19 25.26,-80.52 34.99,-121.75 -6.35,1.07 -16.79,3.32 -21.97,2.18 -1.33,-0.69 8.17,-28.67 8.57,-33.21 l 0.01,-0.49 c -16.25,-5.44 -29.82,-2.9 -48.24,5.09 -1.1,0.54 -1.95,-0.53 -0.97,-1.4"
         style="fill:#17282f;fill-opacity:1;fill-rule:nonzero;stroke:none"
         transform="matrix(0.13333333,0,0,-0.13333333,0,560.88)" />
      <path
         id="path115"
         d="m 1994.66,2900.84 c 50.74,-2.49 75.91,58.48 63.03,106.84 0,0 135.1,-15.02 139.27,93.27 0,0 27.46,-46.38 88.6,-46.69 l 15.9,-39.56 c 13.74,4.29 27.62,43.88 -6.84,73.97 0,0 -3.47,53.87 -43.9,85.38 -40.42,31.52 -79.47,9.42 -79.47,9.42 0,0 -32.15,25.71 -81.65,18.3 -49.51,-7.4 -68.98,-53.09 -68.98,-53.09 0,0 -66.47,-14.17 -76.83,-61.81 -10.36,-47.65 14.81,-78.92 14.81,-78.92 0,0 -16.35,-18.97 -6.99,-59.25 6.01,-25.9 27.82,-47.12 43.05,-47.86"
         style="fill:#17282f;fill-opacity:1;fill-rule:nonzero;stroke:none"
         transform="matrix(0.13333333,0,0,-0.13333333,0,560.88)" />
      <path
         id="path116"
         d="m 2193.77,3110.49 c 1.08,-8.8 1.62,-17.65 0.86,-26.4 -0.32,-8.77 -1.96,-17.37 -4.35,-25.66 -5.09,-16.46 -15.57,-30.99 -30.37,-39.48 -14.35,-9.63 -32.28,-11.47 -49.4,-13.51 -8.74,0.08 -17.55,-0.46 -26.34,0.11 -8.78,0.7 -17.57,1.61 -26.48,2.13 8.65,-1.91 17.42,-3.44 26.2,-5.18 8.83,-1.2 17.82,-1.21 26.79,-1.86 17.77,1.1 36.52,3 52.45,12.98 15.84,9.61 27.43,25.79 31.75,43.52 4.27,17.73 3.57,36.22 -1.11,53.35"
         style="fill:#17282f;fill-opacity:1;fill-rule:nonzero;stroke:none"
         transform="matrix(0.13333333,0,0,-0.13333333,0,560.88)" />
      <path
         id="path117"
         d="m 2264.54,3049.45 c -15.11,5.14 -29.26,11.75 -41.33,21.14 -6.17,4.52 -11.37,10.13 -16.12,16.12 -4.94,5.95 -8.12,13.04 -11.75,20.23 1.12,-7.88 3.34,-15.95 7.76,-22.91 4.12,-7.1 9.74,-13.4 16.29,-18.37 6.56,-4.95 13.78,-9 21.47,-11.66 7.65,-2.68 15.62,-4.53 23.68,-4.55"
         style="fill:#17282f;fill-opacity:1;fill-rule:nonzero;stroke:none"
         transform="matrix(0.13333333,0,0,-0.13333333,0,560.88)" />
      <path
         id="path118"
         d="m 2046.55,2894.91 c 0,0 -45.93,60.23 -73.43,43.61 -27.51,-16.63 8.81,-105.19 42.36,-116.12 33.55,-10.94 44.28,19.92 44.28,19.92 l -13.21,52.59"
         style="fill:#f9a8b6;fill-opacity:1;fill-rule:nonzero;stroke:none"
         transform="matrix(0.13333333,0,0,-0.13333333,0,560.88)" />
      <path
         id="path119"
         d="m 1984.16,2913.39 -0.14,-0.89 c 23.56,-8.43 36.64,-29.41 46.1,-51.33 -7.25,8.29 -16.82,12.6 -27.97,3.93 l 0.68,-1.21 c 9.41,2.42 16.32,1.06 23.05,-6.28 4.76,-5.19 8.14,-11.87 11.65,-17.95 1.17,-2.02 4.86,-0.76 3.98,1.59 l -0.22,0.53 c -0.63,29.56 -25.29,69.95 -57.13,71.61"
         style="fill:#17282f;fill-opacity:1;fill-rule:nonzero;stroke:none"
         transform="matrix(0.13333333,0,0,-0.13333333,0,560.88)" />
      <path
         id="path120"
         d="m 2104.3,2874.06 c -0.04,0 -0.09,0.01 -0.13,0.01 -1.7,0.07 -3.01,1.5 -2.93,3.2 0.07,1.64 1.43,2.93 3.06,2.93 0.04,0 0.09,0 0.14,-0.01 1.69,-0.07 3,-1.5 2.92,-3.19 -0.07,-1.65 -1.43,-2.94 -3.06,-2.94"
         style="fill:#d88a90;fill-opacity:1;fill-rule:nonzero;stroke:none"
         transform="matrix(0.13333333,0,0,-0.13333333,0,560.88)" />
      <path
         id="path121"
         d="m 2168.62,2874.3 c -0.05,0 -0.09,0 -0.14,0 -1.69,0.08 -3,1.51 -2.93,3.2 0.08,1.65 1.43,2.93 3.06,2.93 0.05,0 0.1,0 0.14,0 1.69,-0.07 3.01,-1.51 2.93,-3.2 -0.07,-1.64 -1.43,-2.93 -3.06,-2.93"
         style="fill:#d88a90;fill-opacity:1;fill-rule:nonzero;stroke:none"
         transform="matrix(0.13333333,0,0,-0.13333333,0,560.88)" />
      <path
         id="path122"
         d="m 2145.03,2852.75 c -0.04,0 -0.09,0 -0.14,0 -1.69,0.07 -3,1.51 -2.92,3.2 0.07,1.64 1.43,2.93 3.06,2.93 0.04,0 0.09,0 0.13,0 1.7,-0.08 3.01,-1.51 2.93,-3.2 -0.07,-1.65 -1.43,-2.93 -3.06,-2.93"
         style="fill:#d88a90;fill-opacity:1;fill-rule:nonzero;stroke:none"
         transform="matrix(0.13333333,0,0,-0.13333333,0,560.88)" />
      <path
         id="path123"
         d="m 2107.12,2899.34 c -0.04,0 -0.09,0 -0.13,0 -1.7,0.07 -3.01,1.51 -2.93,3.2 0.07,1.64 1.43,2.93 3.06,2.93 0.04,0 0.09,0 0.14,0 1.69,-0.08 3,-1.51 2.92,-3.2 -0.07,-1.65 -1.43,-2.93 -3.06,-2.93"
         style="fill:#d88a90;fill-opacity:1;fill-rule:nonzero;stroke:none"
         transform="matrix(0.13333333,0,0,-0.13333333,0,560.88)" />
      <path
         id="path124"
         d="m 2136.67,2880.75 c -0.05,0 -0.1,0 -0.14,0.01 -1.69,0.07 -3,1.5 -2.93,3.19 0.07,1.65 1.43,2.94 3.06,2.94 0.05,0 0.09,-0.01 0.14,-0.01 1.69,-0.07 3,-1.5 2.93,-3.19 -0.08,-1.65 -1.43,-2.94 -3.06,-2.94"
         style="fill:#d88a90;fill-opacity:1;fill-rule:nonzero;stroke:none"
         transform="matrix(0.13333333,0,0,-0.13333333,0,560.88)" />
      <path
         id="path125"
         d="m 2296.48,2918.3 c -0.04,0 -0.09,0 -0.14,0 -1.69,0.07 -3,1.51 -2.93,3.2 0.08,1.64 1.43,2.93 3.07,2.93 0.04,0 0.09,0 0.13,0 1.69,-0.08 3.01,-1.51 2.93,-3.2 -0.07,-1.65 -1.43,-2.93 -3.06,-2.93"
         style="fill:#d88a90;fill-opacity:1;fill-rule:nonzero;stroke:none"
         transform="matrix(0.13333333,0,0,-0.13333333,0,560.88)" />
      <path
         id="path126"
         d="m 2271.8,2901.9 c -0.05,0 -0.09,0 -0.14,0.01 -1.69,0.07 -3,1.5 -2.93,3.19 0.08,1.65 1.43,2.94 3.07,2.94 0.04,0 0.09,-0.01 0.13,-0.01 1.69,-0.07 3,-1.5 2.93,-3.2 -0.07,-1.64 -1.43,-2.93 -3.06,-2.93"
         style="fill:#d88a90;fill-opacity:1;fill-rule:nonzero;stroke:none"
         transform="matrix(0.13333333,0,0,-0.13333333,0,560.88)" />
      <path
         id="path127"
         d="m 2277.04,2881.43 c -0.05,0 -0.09,0.01 -0.14,0.01 -1.69,0.07 -3,1.5 -2.93,3.19 0.07,1.65 1.43,2.94 3.06,2.94 0.05,0 0.09,-0.01 0.14,-0.01 1.69,-0.07 3,-1.5 2.93,-3.2 -0.07,-1.64 -1.43,-2.93 -3.06,-2.93"
         style="fill:#d88a90;fill-opacity:1;fill-rule:nonzero;stroke:none"
         transform="matrix(0.13333333,0,0,-0.13333333,0,560.88)" />
      <path
         id="path128"
         d="m 2298.5,2894.59 c -0.04,0 -0.09,0 -0.13,0 -1.69,0.08 -3,1.51 -2.93,3.2 0.07,1.65 1.43,2.93 3.06,2.93 0.05,0 0.09,0 0.14,0 1.69,-0.08 3,-1.51 2.93,-3.2 -0.07,-1.65 -1.43,-2.93 -3.07,-2.93"
         style="fill:#d88a90;fill-opacity:1;fill-rule:nonzero;stroke:none"
         transform="matrix(0.13333333,0,0,-0.13333333,0,560.88)" />
      <path
         id="path129"
         d="m 1567.63,191.332 c 27.86,-10.102 853.24,-26.371 884.31,-7.422 3.62,1.93 17.07,275 17.07,275 -0.99,3.871 12.81,30.199 33.84,66.75 58.86,102.711 173.9,286.629 173.9,286.629 L 2186.9,960.41 1985.65,557.32 1934.37,454.469 c 0,0 -112.5,-43.977 -210.65,-87.84 l -0.27,-0.27 c -60.47,-26.89 -113.05,-51.546 -125.33,-60.75 -31.57,-24.257 -58.35,-104.449 -30.49,-114.277"
         style="fill:#f9a8b6;fill-opacity:1;fill-rule:nonzero;stroke:none"
         transform="matrix(0.13333333,0,0,-0.13333333,0,560.88)" />
      <path
         id="path130"
         d="m 1567.63,191.332 c 27.86,-10.102 853.24,-26.371 884.31,-7.422 3.62,1.93 17.07,275 17.07,275 -0.99,3.871 12.81,30.199 33.84,66.75 l -517.2,31.66 -51.28,-102.851 c 0,0 -112.5,-43.977 -210.65,-87.84 l -0.27,-0.27 c -60.47,-26.89 -113.05,-51.546 -125.33,-60.75 -31.57,-24.257 -58.35,-104.449 -30.49,-114.277"
         style="fill:#ffffff;fill-opacity:1;fill-rule:nonzero;stroke:none"
         transform="matrix(0.13333333,0,0,-0.13333333,0,560.88)" />
      <path
         id="path131"
         d="m 1564.16,188.242 c 28.71,-10.152 855.16,-24.332 887.02,-4.953 12.12,7.293 26.71,134.5 17.8,275.602 l -532.83,8.5 c 0,0 -308.57,-136.391 -341.23,-161.391 -32.49,-25.008 -59.46,-107.602 -30.76,-117.758"
         style="fill:#333d55;fill-opacity:1;fill-rule:nonzero;stroke:none"
         transform="matrix(0.13333333,0,0,-0.13333333,0,560.88)" />
      <path
         id="path132"
         d="m 2176.2,173.629 0.02,0.031 c 1.08,-0.008 2.18,-0.008 3.25,-0.008 28.71,0 56.29,0.11 82.14,0.328 -26.83,-0.238 -55.53,-0.351 -85.41,-0.351"
         style="fill:#e0e1de;fill-opacity:1;fill-rule:nonzero;stroke:none"
         transform="matrix(0.13333333,0,0,-0.13333333,0,560.88)" />
      <path
         id="path133"
         d="m 2471.67,358.762 c 0.27,31.418 -0.49,65.238 -2.67,99.91 0,0.058 0,0.109 0,0.137 2.19,-34.707 2.95,-68.598 2.67,-100.047"
         style="fill:#2c4954;fill-opacity:1;fill-rule:nonzero;stroke:none"
         transform="matrix(0.13333333,0,0,-0.13333333,0,560.88)" />
      <path
         id="path134"
         d="m 2469,458.672 c -0.01,0.058 -0.01,0.148 -0.02,0.207 h 0.02 c 0,-0.02 0,-0.039 0,-0.07 0,-0.028 0,-0.079 0,-0.137 m -1.26,0.238 -11.79,0.192 0.09,0.089 11.7,-0.281"
         style="fill:#e0e1de;fill-opacity:1;fill-rule:nonzero;stroke:none"
         transform="matrix(0.13333333,0,0,-0.13333333,0,560.88)" />
      <path
         id="path135"
         d="m 2179.47,173.652 c -1.07,0 -2.17,0 -3.25,0.008 l 279.72,285.422 0.01,0.02 11.79,-0.192 1.24,-0.031 c 0.01,-0.059 0.01,-0.149 0.02,-0.207 2.18,-34.672 2.94,-68.492 2.67,-99.91 -0.83,-96.352 -11.37,-169.981 -20.52,-175.442 -9.25,-5.59 -85.38,-8.418 -189.54,-9.34 -25.85,-0.218 -53.43,-0.328 -82.14,-0.328"
         style="fill:#1e1e36;fill-opacity:1;fill-rule:nonzero;stroke:none"
         transform="matrix(0.13333333,0,0,-0.13333333,0,560.88)" />
      <path
         id="path136"
         d="m 1576.59,221.102 c 138.59,1.019 697.69,-7.922 834.78,-17.442 1.11,-0.07 1.1,-0.828 -0.02,-0.871 -137.35,-4.008 -696.36,9.461 -834.81,16.043 -2.92,0.137 -2.88,2.25 0.05,2.27"
         style="fill:#17282f;fill-opacity:1;fill-rule:nonzero;stroke:none"
         transform="matrix(0.13333333,0,0,-0.13333333,0,560.88)" />
      <path
         id="path137"
         d="m 1648.59,334.82 c 32.88,0.77 64.72,-15.379 82.3,-35.25 16.89,-19.101 31.16,-45.789 29.69,-74.5 l -1.67,0.032 c -6.99,54.347 -55.48,102.82 -110.36,107.98 -1.1,0.109 -1.09,1.707 0.04,1.738"
         style="fill:#17282f;fill-opacity:1;fill-rule:nonzero;stroke:none"
         transform="matrix(0.13333333,0,0,-0.13333333,0,560.88)" />
      <path
         id="path138"
         d="m 1892.46,454.25 c 55.47,-0.18 119.42,-20.859 153.09,-66.801 1.31,-1.777 -1.24,-3.609 -2.87,-2.73 -49.69,26.703 -97,46.773 -151.29,62.722 -3.83,1.122 -2.9,6.821 1.07,6.809"
         style="fill:#17282f;fill-opacity:1;fill-rule:nonzero;stroke:none"
         transform="matrix(0.13333333,0,0,-0.13333333,0,560.88)" />
      <path
         id="path139"
         d="m 1849.37,438.289 c 55.46,-0.18 119.41,-20.848 153.09,-66.789 1.31,-1.781 -1.24,-3.609 -2.87,-2.73 -49.68,26.699 -97.01,46.769 -151.3,62.71 -3.82,1.129 -2.89,6.821 1.08,6.809"
         style="fill:#17282f;fill-opacity:1;fill-rule:nonzero;stroke:none"
         transform="matrix(0.13333333,0,0,-0.13333333,0,560.88)" />
      <path
         id="path140"
         d="m 1806.27,422.34 c 55.47,-0.18 119.42,-20.86 153.1,-66.801 1.31,-1.777 -1.24,-3.598 -2.88,-2.73 -49.68,26.703 -97,46.773 -151.29,62.722 -3.82,1.121 -2.9,6.821 1.07,6.809"
         style="fill:#17282f;fill-opacity:1;fill-rule:nonzero;stroke:none"
         transform="matrix(0.13333333,0,0,-0.13333333,0,560.88)" />
      <path
         id="path141"
         d="m 1763.18,406.391 c 55.47,-0.192 119.42,-20.86 153.1,-66.801 1.3,-1.781 -1.25,-3.61 -2.88,-2.731 -49.68,26.704 -97,46.77 -151.29,62.711 -3.83,1.129 -2.9,6.832 1.07,6.821"
         style="fill:#17282f;fill-opacity:1;fill-rule:nonzero;stroke:none"
         transform="matrix(0.13333333,0,0,-0.13333333,0,560.88)" />
      <path
         id="path142"
         d="m 2378.33,335.852 c 62.21,-1.25 60.38,-97.93 -1.93,-96.68 -62.21,1.25 -60.38,97.93 1.93,96.68"
         style="fill:#17282f;fill-opacity:1;fill-rule:nonzero;stroke:none"
         transform="matrix(0.13333333,0,0,-0.13333333,0,560.88)" />
      <path
         id="path143"
         d="m 1836.32,567.871 c 6.55,60.231 60.19,12.961 71.92,-5.57 7.54,-11.899 13.78,-24.949 19.61,-37.75 12.23,-26.84 20.41,-54.903 29.84,-82.699 -18.32,14.918 -37.76,28.14 -56.61,42.367 -22.46,16.961 -68.37,50.441 -64.76,83.652 z m 1.79,-45.98 c 29.25,-39.129 74.43,-64.211 113.44,-92.192 4.04,-2.91 8.79,0.352 10.05,4.301 0.91,-0.078 1.81,0.379 1.76,1.559 -2.28,47.851 -20.6,103.043 -47.96,142.66 -16.89,24.461 -51.86,47.812 -80.33,25.023 -26.92,-21.562 -14.05,-58.523 3.04,-81.351"
         style="fill:#17282f;fill-opacity:1;fill-rule:nonzero;stroke:none"
         transform="matrix(0.13333333,0,0,-0.13333333,0,560.88)" />
      <path
         id="path144"
         d="m 2029.75,431.102 c -23.37,3.461 -46.42,8.027 -69.91,10.617 26.43,12.781 52.17,26.64 79.87,36.75 13.22,4.82 26.89,9.531 40.66,12.511 21.43,4.622 92.75,-0.429 54.41,-47.359 -21.13,-25.871 -77.18,-16.629 -105.03,-12.519 z m 131.12,36.449 c -3.72,36.269 -44.89,44.808 -74.18,39.691 -47.42,-8.293 -99.61,-33.953 -135.31,-65.89 l 0.13,-2.34 c -1.95,-3.68 -0.93,-9.34 3.98,-10.192 47.31,-8.168 96.87,-22.769 145.28,-16.179 28.26,3.851 63.62,20.589 60.1,54.91"
         style="fill:#17282f;fill-opacity:1;fill-rule:nonzero;stroke:none"
         transform="matrix(0.13333333,0,0,-0.13333333,0,560.88)" />
      <path
         id="path145"
         d="m 2540.1,531 -581.13,88.07 c 0,0 279.35,556.74 452.26,858.86 96.15,167.99 359.16,176.21 487.09,-25.05 170.9,-268.88 303.5,-520.817 379.5,-660.509 l 131.83,-11.281 -28.44,-215.36 -438.1,-98.121 c -85.93,-10.289 -158.74,63.032 -209.71,136.352 -48.56,69.871 -77.28,139.73 -78.62,137.269 C 2633.54,702 2540.1,531 2540.1,531"
         style="fill:#17282f;fill-opacity:1;fill-rule:nonzero;stroke:none"
         transform="matrix(0.13333333,0,0,-0.13333333,0,560.88)" />
      <path
         id="path146"
         d="m 2651.69,739.91 c 16.54,33.852 29.43,69.77 44.11,104.461 14.21,33.551 28.51,67.059 42.61,100.649 28.51,67.9 58.03,135.46 85.68,203.7 15.52,38.31 29.77,77.09 44.27,115.8 0.35,0.93 1.79,0.52 1.49,-0.45 -11.21,-36.58 -22.89,-73.02 -35.13,-109.26 3.25,6.26 6.48,12.51 9.88,18.6 9.33,16.68 18.96,33.16 28.63,49.65 l 0.98,-0.6 c -8.91,-16.55 -17.83,-33.08 -27.09,-49.45 -4.61,-8.13 -9.65,-16.18 -14.51,-24.31 -34.48,-101.49 -73.56,-201.348 -120.54,-297.79 -18.47,-37.93 -40.11,-74.238 -58.61,-112.09 -0.58,-1.199 -2.35,-0.101 -1.77,1.09"
         style="fill:#273e47;fill-opacity:1;fill-rule:nonzero;stroke:none"
         transform="matrix(0.13333333,0,0,-0.13333333,0,560.88)" />
      <path
         id="path147"
         d="m 2527.12,634.301 c 28.01,43.23 94.74,174.097 118.64,219.34 48.34,91.5 92.58,184.879 134.41,279.519 23.63,53.47 45.74,107.43 67.62,161.63 l 0.6,-0.18 c -32.91,-97.64 -72.13,-193.28 -114.68,-287.08 -42.61,-93.928 -180.07,-346.96 -204.82,-374.319 -0.9,-0.992 -2.5,-0.031 -1.77,1.09"
         style="fill:#273e47;fill-opacity:1;fill-rule:nonzero;stroke:none"
         transform="matrix(0.13333333,0,0,-0.13333333,0,560.88)" />
      <path
         id="path148"
         d="m 2887.89,1222.51 c 50.07,-89.42 101.24,-178.22 151.53,-267.518 25.42,-45.133 50.82,-90.262 75.97,-135.543 11.83,-21.308 23.31,-42.867 35.59,-63.918 11.61,-19.922 25.47,-36.41 45.93,-47.64 22.5,-12.36 48.4,-18.282 72.86,-25.442 28.26,-8.269 56.35,-17.16 84.74,-24.957 1.29,-0.351 0.7,-2.332 -0.6,-1.992 -25.32,6.77 -50.88,12.602 -76.33,18.879 -23.1,5.691 -46.86,10.512 -69.26,18.68 -20.28,7.402 -37.83,18.421 -51.36,35.461 -14.5,18.269 -24.81,39.679 -35.95,60.05 -50.25,91.84 -99.95,183.981 -149.33,276.29 -28.06,52.47 -55.88,105.09 -84.25,157.4 l 0.46,0.25"
         style="fill:#273e47;fill-opacity:1;fill-rule:nonzero;stroke:none"
         transform="matrix(0.13333333,0,0,-0.13333333,0,560.88)" />
      <path
         id="path149"
         d="m 2553.31,612.539 c -34.82,6.34 -70.48,9.371 -105.59,13.883 -35.21,4.527 -70.41,9.07 -105.61,13.668 -70.22,9.172 -309.27,47.25 -327.32,53.23 -1.14,0.379 -0.75,2.239 0.4,2.282 17.1,0.527 173.65,-20.321 208.76,-25.481 70.22,-10.34 139.98,-22.789 209.95,-34.601 19.98,-3.372 39.89,-7.168 59.84,-10.7 19.91,-3.539 39.85,-7.828 59.91,-10.398 1.21,-0.16 0.88,-2.102 -0.34,-1.883"
         style="fill:#273e47;fill-opacity:1;fill-rule:nonzero;stroke:none"
         transform="matrix(0.13333333,0,0,-0.13333333,0,560.88)" />
      <path
         id="path150"
         d="m 2185.51,66.9492 c 10.51,27.711 536.81,663.6918 571.35,674.8828 3.97,1.5 219.56,-166.512 219.56,-166.512 8.65,-12.64 435.44,58.34 435.44,58.34 l -17.96,-510.359 -769.67,49.871 c 0,0 -106.71,-56.652 -204.06,-102.3517 l -0.33,-0.0312 C 2359.93,42.4688 2306.95,18.7109 2291.99,15.5 2253.03,7.28906 2174.82,39.4023 2185.51,66.9492"
         style="fill:#f9a8b6;fill-opacity:1;fill-rule:nonzero;stroke:none"
         transform="matrix(0.13333333,0,0,-0.13333333,0,560.88)" />
      <path
         id="path151"
         d="m 2291.98,15.5 c 15.02,3.1602 67.94,26.9297 127.83,55.3125 l 0.37,-0.0117 c 97.28,45.6912 204.02,102.4102 204.02,102.4102 l 171.3,-11.141 287.24,421.461 c -59.36,-7.871 -103.58,-12.222 -106.35,-8.172 0,0 -215.51,167.993 -219.51,166.45 C 2722.33,730.641 2196.07,94.6797 2185.52,66.9805 2174.85,39.4102 2253.01,7.24219 2291.98,15.5"
         style="fill:#ffffff;fill-opacity:1;fill-rule:nonzero;stroke:none"
         transform="matrix(0.13333333,0,0,-0.13333333,0,560.88)" />
      <path
         id="path152"
         d="m 2180.92,66.2813 c 11.04,28.3789 539.57,663.8787 575.04,675.3907 13.44,4.43 119.35,-67.531 220.46,-166.352 L 2635.18,166.012 c 0,0 -304.7,-144.8323 -344.96,-153.2698 -40.15,-8.30079 -120.33,25.1601 -109.3,53.5391"
         style="fill:#333d55;fill-opacity:1;fill-rule:nonzero;stroke:none"
         transform="matrix(0.13333333,0,0,-0.13333333,0,560.88)" />
      <path
         id="path153"
         d="m 2213.92,54.25 c 91.22,104.359 449.27,533.859 531.5,643.949 l -0.67,0.563 c -92.67,-101.461 -447.22,-533.86 -532.58,-643.0628 -1.8,-2.2969 -0.17,-3.6484 1.75,-1.4492"
         style="fill:#17282f;fill-opacity:1;fill-rule:nonzero;stroke:none"
         transform="matrix(0.13333333,0,0,-0.13333333,0,560.88)" />
      <path
         id="path154"
         d="m 2347.08,34.6094 c 22.04,24.4101 30.58,59.082 26.99,85.3706 -3.45,25.25 -14.36,53.481 -37.08,71.11 l -1.07,-1.289 c 36.63,-40.762 41.71,-109.1291 9.82,-154.0783 -0.64,-0.9102 0.58,-1.9532 1.34,-1.1133"
         style="fill:#17282f;fill-opacity:1;fill-rule:nonzero;stroke:none"
         transform="matrix(0.13333333,0,0,-0.13333333,0,560.88)" />
      <path
         id="path155"
         d="m 2596.71,141.48 c 36.05,42.149 62.12,104.102 49.28,159.59 -0.5,2.16 -3.54,1.422 -3.94,-0.39 -12.19,-55.078 -27.86,-104.028 -51.2,-155.571 -1.65,-3.64 3.28,-6.648 5.86,-3.629"
         style="fill:#17282f;fill-opacity:1;fill-rule:nonzero;stroke:none"
         transform="matrix(0.13333333,0,0,-0.13333333,0,560.88)" />
      <path
         id="path156"
         d="m 2556.5,119.23 c 36.06,42.149 62.12,104.102 49.28,159.602 -0.49,2.148 -3.54,1.41 -3.94,-0.402 -12.19,-55.071 -27.86,-104.02 -51.2,-155.571 -1.64,-3.629 3.28,-6.64 5.86,-3.629"
         style="fill:#17282f;fill-opacity:1;fill-rule:nonzero;stroke:none"
         transform="matrix(0.13333333,0,0,-0.13333333,0,560.88)" />
      <path
         id="path157"
         d="m 2516.3,96.9922 c 36.05,42.1488 62.11,104.0978 49.28,159.5978 -0.5,2.152 -3.55,1.41 -3.95,-0.399 -12.19,-55.07 -27.86,-104.019 -51.2,-155.57 -1.64,-3.6288 3.28,-6.6522 5.87,-3.6288"
         style="fill:#17282f;fill-opacity:1;fill-rule:nonzero;stroke:none"
         transform="matrix(0.13333333,0,0,-0.13333333,0,560.88)" />
      <path
         id="path158"
         d="m 2476.09,74.75 c 36.05,42.141 62.11,104.09 49.27,159.59 -0.49,2.152 -3.54,1.41 -3.94,-0.391 -12.19,-55.07 -27.85,-104.027 -51.19,-155.5701 -1.65,-3.6367 3.27,-6.6484 5.86,-3.6289"
         style="fill:#17282f;fill-opacity:1;fill-rule:nonzero;stroke:none"
         transform="matrix(0.13333333,0,0,-0.13333333,0,560.88)" />
      <path
         id="path159"
         d="m 2824.04,586.91 c 39.64,47.961 -34.82,109.649 -74.53,61.621 -39.65,-47.961 34.81,-109.652 74.53,-61.621"
         style="fill:#17282f;fill-opacity:1;fill-rule:nonzero;stroke:none"
         transform="matrix(0.13333333,0,0,-0.13333333,0,560.88)" />
      <path
         id="path160"
         d="m 2625.05,128.461 c 1.52,23.559 4.19,46.918 4.83,70.539 14.91,-25.289 30.84,-49.801 43.2,-76.578 5.89,-12.77 11.71,-26.0118 15.81,-39.4923 6.38,-20.9805 7.21,-92.46876 -42.71,-58.1289 -27.53,18.9297 -22.94,75.5582 -21.13,103.6602 z M 2672.16,0.769531 c 35.85,6.699219 40.98,48.441369 33.46,77.199269 -12.17,46.5822 -42.04,96.4802 -76.81,129.4332 l -2.33,-0.32 c -3.81,1.629 -9.38,0.16 -9.81,-4.812 -4.26,-47.821 -14.73,-98.418 -4.17,-146.1177 6.16,-27.8515 25.76,-61.71089 59.66,-55.382769"
         style="fill:#17282f;fill-opacity:1;fill-rule:nonzero;stroke:none"
         transform="matrix(0.13333333,0,0,-0.13333333,0,560.88)" />
      <path
         id="path161"
         d="m 2746.78,332.039 c 60.58,-1.57 17.87,-58.91 0.38,-72.137 -11.25,-8.492 -23.73,-15.781 -36.01,-22.652 -25.74,-14.391 -53.04,-24.859 -79.96,-36.539 13.36,19.488 24.93,39.941 37.56,59.898 15.06,23.793 44.64,72.301 78.03,71.43 z m -45.67,-5.559 c -36.58,-32.378 -57.86,-79.468 -82.54,-120.648 -2.56,-4.273 1.07,-8.742 5.12,-9.66 -0.01,-0.91 0.52,-1.781 1.69,-1.633 47.5,6.211 101,29.012 138.23,59.543 22.99,18.848 43.38,55.617 18.32,82.117 -23.7,25.051 -59.47,9.18 -80.82,-9.719"
         style="fill:#17282f;fill-opacity:1;fill-rule:nonzero;stroke:none"
         transform="matrix(0.13333333,0,0,-0.13333333,0,560.88)" />
      <path
         id="path162"
         d="m 3163.84,762.551 c 0,0 660.02,88.609 876.04,30.429 301.27,-81.148 335.81,-443.078 103.79,-580.839 C 3849.7,37.6016 2829.87,134.879 2829.87,134.879 l 284.66,479.832 c 0,0 427.22,79.629 810.18,48.75 l -772.68,-95.609 11.81,194.699"
         style="fill:#17282f;fill-opacity:1;fill-rule:nonzero;stroke:none"
         transform="matrix(0.13333333,0,0,-0.13333333,0,560.88)" />
      <path
         id="path163"
         d="m 3094.77,582.41 0.7,2.602 0.57,2.117 c 0.44,1.652 0.92,3.293 1.41,4.922 1.03,3.398 2.3,6.621 3.63,9.898 1.33,3.262 2.77,6.43 4.29,9.602 1.57,3.262 3.6,5.859 5.54,8.84 l 0.76,0.539 0.5,0.351 0.7,0.278 0.71,0.281 c 46.93,7.512 365.17,43.562 412.42,47.422 47.64,3.89 95.38,6.679 143.09,9 95.15,4.64 190.68,4.84 285.72,-1.102 8.92,-0.551 17.8,-1.328 26.7,-2.058 1.91,0.609 3.95,0.898 5.92,1.328 4.62,1.011 9.21,2.062 13.87,2.832 8.66,1.437 17.37,2.449 26.07,3.527 18.13,2.25 36.28,3.563 54.34,6.473 1.1,0.179 1.45,-1.653 0.34,-1.871 -18.19,-3.61 -36.14,-8.582 -54.34,-12.121 -5.25,-1.02 -10.5,-2.028 -15.77,-2.957 34.8,-3.532 69.5,-8.012 104.17,-12.993 1.09,-0.16 1.04,-2.031 -0.08,-1.91 -47.24,5.121 -94.96,7.582 -142.44,8.762 -47.16,1.18 -94.29,2.078 -141.48,1.16 -95.42,-1.871 -190.93,-7.133 -286.19,-13.934 -53.46,-3.816 -377.98,-41.578 -431.51,-41.718 l -0.65,0.14 c -0.5,-1.328 -0.99,-2.66 -1.65,-3.949 -1.6,-3.141 -3.22,-6.23 -4.94,-9.281 -1.66,-2.949 -3.29,-5.86 -5.15,-8.66 -0.92,-1.391 -1.85,-2.77 -2.8,-4.149 l -1.42,-2.062 -1.49,-2.149 c -0.44,-1.289 -2.24,-0.34 -1.54,0.84"
         style="fill:#273e47;fill-opacity:1;fill-rule:nonzero;stroke:none"
         transform="matrix(0.13333333,0,0,-0.13333333,0,560.88)" />
      <path
         id="path164"
         d="m 2976.12,164.789 c 16.82,27.59 31.42,57.191 46.95,85.723 15.59,28.629 31.18,57.238 46.82,85.828 31.18,57.039 142.54,248.582 153.29,261.851 0.68,0.84 1.96,-0.211 1.59,-1.211 -5.5,-14.949 -75.33,-141.941 -91.36,-170.238 -32.07,-56.59 -65.58,-111.972 -98.67,-167.793 -9.45,-15.937 -19.2,-31.648 -28.77,-47.5 -9.54,-15.808 -19.67,-31.359 -28.54,-47.668 -0.54,-0.98 -1.9,0.039 -1.31,1.008"
         style="fill:#273e47;fill-opacity:1;fill-rule:nonzero;stroke:none"
         transform="matrix(0.13333333,0,0,-0.13333333,0,560.88)" />
      <path
         id="path165"
         d="m 3240.51,545.602 c 28.38,6.187 57.34,9.777 85.96,14.449 28.68,4.691 57.37,9.34 86.07,13.91 57.4,9.148 114.86,17.828 172.39,25.918 114.73,16.141 229.78,28.691 345.21,35.82 65.15,4.031 130.37,5.723 195.57,8.141 1.38,0.051 1.24,-2.371 -0.16,-2.379 -115.98,-0.691 -232.29,-12.941 -347.68,-26.082 -114.27,-13.008 -228.34,-27.809 -342.31,-43.887 -32.17,-4.543 -64.34,-9.179 -96.5,-13.871 -32.64,-4.769 -65.38,-10.98 -98.17,-14.121 -1.22,-0.109 -1.65,1.832 -0.38,2.102"
         style="fill:#273e47;fill-opacity:1;fill-rule:nonzero;stroke:none"
         transform="matrix(0.13333333,0,0,-0.13333333,0,560.88)" />
      <path
         id="path166"
         d="m 3240.4,1371.76 c -63.23,-110.33 -314.88,-450.58 -394.06,-461.881 -82.41,-11.758 -386.2,14.273 -441.61,79.523 -27.13,31.938 16.62,305.838 58.74,290.528 42.12,-15.31 302.04,-78.08 335.39,-73.2 33.15,4.84 302.73,265.65 402,321.92 171.17,97.02 73.59,-97.48 39.54,-156.89"
         style="fill:#f9a8b6;fill-opacity:1;fill-rule:nonzero;stroke:none"
         transform="matrix(0.13333333,0,0,-0.13333333,0,560.88)" />
      <path
         id="path167"
         d="m 2530.3,1271.21 -64.1,-339.378 c 0,0 304.27,-62.352 394.04,-36.082 89.76,26.281 340.49,382.78 413.61,523.82 73.12,141.04 9.24,178.04 -122.01,90.22 -131.25,-87.82 -341.77,-284.81 -362.21,-285.66 -20.43,-0.85 -259.33,47.08 -259.33,47.08"
         style="fill:#333d55;fill-opacity:1;fill-rule:nonzero;stroke:none"
         transform="matrix(0.13333333,0,0,-0.13333333,0,560.88)" />
      <path
         id="path168"
         d="m 3062.84,1318.21 c -4.28,-10.3 -5.3,-20.6 -5.4,-31.01 0.2,-10.3 1.12,-20.71 5.4,-31.01 4.29,10.3 5.21,20.71 5.41,31.01 -0.1,10.41 -1.12,20.71 -5.41,31.01 m -38.36,-250.36 c -10.4,-0.2 -20.71,-1.22 -31.11,-5.4 10.4,-4.29 20.71,-5.31 31.11,-5.51 1.33,0 2.76,0.1 4.09,0.1 2.55,3.26 5.3,6.63 7.95,10 -4.08,0.51 -8.06,0.71 -12.04,0.81 m -352.78,31.53 c -7.45,7.14 -15.41,13.77 -25.81,18.06 4.28,-10.31 10.91,-18.37 18.16,-25.81 7.44,-7.15 15.4,-13.78 25.7,-18.06 -4.28,10.3 -10.91,18.36 -18.05,25.81 m -122.53,168.03 h -0.1 c -0.92,-0.82 -1.84,-1.74 -2.76,-2.55 -7.14,-7.45 -13.77,-15.41 -18.05,-25.81 10.3,4.28 18.26,10.91 25.81,18.16 2.44,2.55 4.79,5.1 7.04,7.85 -4.39,0.82 -8.37,1.63 -11.94,2.35 m 307.18,-63.46 c -7.14,-7.45 -13.77,-15.4 -18.05,-25.81 10.3,4.39 18.36,10.92 25.81,18.16 7.14,7.45 13.77,15.4 18.06,25.81 -10.31,-4.39 -18.37,-11.02 -25.82,-18.16 m 327.39,279.64 c -7.14,-7.45 -13.77,-15.51 -18.06,-25.81 10.31,4.28 18.37,10.91 25.81,18.06 7.14,7.44 13.78,15.5 18.06,25.81 -10.3,-4.29 -18.36,-10.92 -25.81,-18.06 m -120.9,-165.38 c -4.28,-10.3 -5.3,-20.6 -5.4,-31.01 0.2,-10.3 1.12,-20.71 5.4,-31.01 4.29,10.3 5.21,20.71 5.41,31.01 -0.1,10.41 -1.12,20.71 -5.41,31.01 M 2807.89,986.539 c -4.28,-10.297 -5.2,-20.707 -5.4,-31.008 0.2,-10.301 1.12,-20.711 5.4,-31.011 4.29,10.3 5.21,20.71 5.51,31.011 -0.2,10.301 -1.22,20.711 -5.51,31.008 m 216.59,81.311 c -10.4,-0.2 -20.71,-1.22 -31.11,-5.4 10.4,-4.29 20.71,-5.31 31.11,-5.51 1.33,0 2.76,0.1 4.09,0.1 2.55,3.26 5.3,6.63 7.95,10 -4.08,0.51 -8.06,0.71 -12.04,0.81 M 2527.24,966.449 c -10.41,-0.207 -20.72,-1.23 -31.02,-5.41 10.3,-4.289 20.61,-5.309 31.02,-5.508 10.3,0.199 20.6,1.219 31.01,5.508 -10.41,4.18 -20.71,5.203 -31.01,5.41 m 656.5,517.141 c -7.14,-7.45 -13.77,-15.51 -18.06,-25.81 10.31,4.28 18.37,10.91 25.81,18.06 7.14,7.44 13.78,15.5 18.06,25.81 -10.3,-4.29 -18.36,-10.92 -25.81,-18.06"
         style="fill:#ffffff;fill-opacity:1;fill-rule:nonzero;stroke:none"
         transform="matrix(0.13333333,0,0,-0.13333333,0,560.88)" />
      <path
         id="path169"
         d="m 2585.3,1086.16 c 5.17,26.86 25.12,134.45 28.01,161.55 l -0.77,0.2 c -7.83,-25.31 -30.62,-130.91 -35.86,-157.81 -10.42,-53.62 -22.03,-107.338 -26.52,-161.87 -0.08,-0.96 1.44,-1.48 1.73,-0.449 14.66,51.961 23.21,105.429 33.41,158.379"
         style="fill:#17282f;fill-opacity:1;fill-rule:nonzero;stroke:none"
         transform="matrix(0.13333333,0,0,-0.13333333,0,560.88)" />
      <path
         id="path170"
         d="m 3088.94,1135.55 -0.01,0.01 c 77.41,104.54 150.66,217.93 184.92,284.01 8.37,16.14 14.94,30.92 19.82,44.3 -4.87,-13.37 -11.43,-28.15 -19.78,-44.28 -34.3,-66.11 -107.55,-179.5 -184.95,-284.04"
         style="fill:#e0e1de;fill-opacity:1;fill-rule:nonzero;stroke:none"
         transform="matrix(0.13333333,0,0,-0.13333333,0,560.88)" />
      <path
         id="path171"
         d="m 2896.99,917.031 c 28.12,21.821 62.69,57.789 99.62,101.299 0,-0.01 0,-0.01 0,-0.01 -36.92,-43.5 -71.49,-79.48 -99.62,-101.289 m 103.8,106.229 v 0.01 c 9.13,10.85 18.39,22.14 27.73,33.77 0.01,0 0.01,0 0.02,0 -9.35,-11.64 -18.61,-22.92 -27.75,-33.78 m 29.22,35.62 c 1.03,1.3 2.08,2.61 3.14,3.92 -1.04,-1.3 -2.1,-2.63 -3.14,-3.92 m 6.51,8.16 c -0.01,0 -0.01,0 -0.02,0 17.43,21.98 35.02,45.01 52.43,68.52 l 0.01,-0.01 c -17.4,-23.5 -35,-46.55 -52.42,-68.51"
         style="fill:#142228;fill-opacity:1;fill-rule:nonzero;stroke:none"
         transform="matrix(0.13333333,0,0,-0.13333333,0,560.88)" />
      <path
         id="path172"
         d="m 2996.61,1018.32 c 0,0 0,0 0,0.01 1.39,1.64 2.78,3.28 4.18,4.94 v -0.01 c -1.38,-1.65 -2.79,-3.32 -4.18,-4.94"
         style="fill:#21363e;fill-opacity:1;fill-rule:nonzero;stroke:none"
         transform="matrix(0.13333333,0,0,-0.13333333,0,560.88)" />
      <path
         id="path173"
         d="m 2796.6,889.32 c -86.72,0 -215.62,21.2 -283.93,33.692 l 40.47,33.89 c -1.18,-9.531 -2.19,-19.093 -2.98,-28.672 -0.05,-0.589 0.51,-1.011 1.01,-1.011 0.31,0 0.61,0.16 0.72,0.562 3.34,11.848 6.37,23.77 9.17,35.75 l 708.41,593.249 c 34.59,-2.48 45.55,-34.34 24.2,-92.91 -4.88,-13.38 -11.45,-28.16 -19.82,-44.3 -34.26,-66.08 -107.51,-179.47 -184.92,-284.01 -17.41,-23.51 -35,-46.54 -52.43,-68.52 -4.07,0.51 -8.04,0.71 -12.02,0.81 -10.4,-0.2 -20.71,-1.22 -31.11,-5.4 v 0 0 c 10.4,-4.29 20.71,-5.31 31.11,-5.51 1.32,0 2.73,0.1 4.04,0.1 -9.34,-11.63 -18.6,-22.92 -27.73,-33.77 -1.4,-1.66 -2.79,-3.3 -4.18,-4.94 -36.93,-43.51 -71.5,-79.478 -99.62,-101.299 -14.03,-10.89 -26.44,-18.242 -36.75,-21.25 -15.63,-4.57 -37.76,-6.461 -63.64,-6.461 m 11.29,97.219 c -4.28,-10.297 -5.2,-20.707 -5.4,-31.008 0.2,-10.301 1.12,-20.711 5.4,-31.011 4.29,10.3 5.21,20.71 5.51,31.011 -0.2,10.301 -1.22,20.711 -5.51,31.008 m 74.28,235.571 c -10.31,-4.39 -18.37,-11.02 -25.82,-18.16 -7.14,-7.45 -13.77,-15.4 -18.05,-25.81 10.3,4.39 18.36,10.92 25.81,18.16 7.14,7.45 13.77,15.4 18.06,25.81 m 175.27,65.09 v 0 c 0.2,-10.3 1.12,-20.71 5.4,-31.01 4.29,10.3 5.21,20.71 5.41,31.01 v 0 0 c -0.1,10.41 -1.12,20.71 -5.41,31.01 -4.28,-10.3 -5.3,-20.6 -5.4,-31.01 v 0 m 108.24,170.58 v 0 0 c 10.31,4.28 18.37,10.91 25.81,18.06 7.14,7.44 13.78,15.5 18.06,25.81 v 0 0 c -10.3,-4.29 -18.36,-10.92 -25.81,-18.06 -7.14,-7.45 -13.77,-15.51 -18.06,-25.81 v 0 0"
         style="fill:#1e1e36;fill-opacity:1;fill-rule:nonzero;stroke:none"
         transform="matrix(0.13333333,0,0,-0.13333333,0,560.88)" />
      <path
         id="path174"
         d="m 2807.89,924.52 c -4.28,10.3 -5.2,20.71 -5.4,31.011 0.2,10.301 1.12,20.711 5.4,31.008 4.29,-10.297 5.31,-20.707 5.51,-31.008 -0.3,-10.301 -1.22,-20.711 -5.51,-31.011 m 216.59,132.42 c -10.4,0.2 -20.71,1.22 -31.11,5.51 v 0 0 c 10.4,4.18 20.71,5.2 31.11,5.4 3.98,-0.1 7.95,-0.3 12.02,-0.81 0.01,0 0.01,0 0.02,0 -1.13,-1.43 -2.24,-2.82 -3.37,-4.24 -1.06,-1.31 -2.11,-2.62 -3.14,-3.92 -0.49,-0.62 -0.98,-1.23 -1.47,-1.84 -0.01,0 -0.01,0 -0.02,0 -1.31,0 -2.72,-0.1 -4.04,-0.1 m -186.18,121.2 c 4.28,10.41 10.91,18.36 18.05,25.81 7.45,7.14 15.51,13.77 25.82,18.16 -4.29,-10.41 -10.92,-18.36 -18.06,-25.81 -7.45,-7.24 -15.51,-13.77 -25.81,-18.16 m 224.54,78.05 c -4.28,10.3 -5.2,20.71 -5.4,31.01 v 0 0 c 0.1,10.41 1.12,20.71 5.4,31.01 4.29,-10.3 5.31,-20.6 5.41,-31.01 v 0 0 c -0.2,-10.3 -1.12,-20.71 -5.41,-31.01 m 102.84,201.59 c 4.29,10.3 10.92,18.36 18.06,25.81 7.45,7.14 15.51,13.77 25.81,18.06 v 0 0 c -4.28,-10.31 -10.92,-18.37 -18.06,-25.81 -7.44,-7.15 -15.5,-13.78 -25.81,-18.06 v 0 0"
         style="fill:#e0e1de;fill-opacity:1;fill-rule:nonzero;stroke:none"
         transform="matrix(0.13333333,0,0,-0.13333333,0,560.88)" />
      <path
         id="path175"
         d="m 2551.17,927.219 c -0.5,0 -1.06,0.422 -1.01,1.011 0.79,9.579 1.8,19.141 2.98,28.672 l 7.92,6.629 c -2.8,-11.98 -5.83,-23.902 -9.17,-35.75 -0.11,-0.402 -0.41,-0.562 -0.72,-0.562"
         style="fill:#142228;fill-opacity:1;fill-rule:nonzero;stroke:none"
         transform="matrix(0.13333333,0,0,-0.13333333,0,560.88)" />
      <path
         id="path176"
         d="m 3008.64,746.699 748.22,-43.429 c -0.92,15.269 -117.96,444.44 -202.14,607.82 -107.93,209.49 -155.79,241.49 -187.83,252.2 -40.98,13.69 -125.1,13.63 -149.86,-25.93 -133.69,-213.62 -218.61,-781.161 -208.39,-790.661"
         style="fill:#333d55;fill-opacity:1;fill-rule:nonzero;stroke:none"
         transform="matrix(0.13333333,0,0,-0.13333333,0,560.88)" />
      <path
         id="path177"
         d="m 3462.26,1264.65 c -4.29,-10.3 -5.31,-20.61 -5.51,-31.01 0.2,-10.31 1.22,-20.61 5.51,-31.02 4.18,10.41 5.2,20.71 5.4,31.02 -0.2,10.4 -1.12,20.71 -5.4,31.01 z M 3615.7,930.02 c -4.29,-10.399 -5.31,-20.711 -5.51,-31.11 0.2,-10.308 1.22,-20.609 5.51,-31.019 4.18,10.41 5.2,20.711 5.4,31.019 -0.2,10.399 -1.22,20.711 -5.4,31.11 z m -428.08,-31.11 c -4.29,-10.308 -5.31,-20.609 -5.51,-31.019 0.3,-10.301 1.22,-20.602 5.51,-31.012 4.28,10.41 5.2,20.711 5.4,31.012 -0.2,10.41 -1.12,20.711 -5.4,31.019 z m 81,446.95 c -10.41,-0.2 -20.71,-1.22 -31.01,-5.51 10.3,-4.18 20.6,-5.2 31.01,-5.41 10.3,0.21 20.61,1.13 31.01,5.41 -10.4,4.29 -20.71,5.31 -31.01,5.51 z m 182.52,-328.1 c -10.31,-0.2 -20.71,-1.22 -31.02,-5.51 10.31,-4.18 20.71,-5.2 31.02,-5.4 10.4,0.2 20.71,1.22 31.01,5.4 -10.3,4.29 -20.61,5.31 -31.01,5.51 z m -187.82,103.55 c -7.45,7.15 -15.41,13.78 -25.82,18.06 4.39,-10.3 10.92,-18.36 18.16,-25.81 7.45,-7.14 15.41,-13.77 25.82,-18.06 -4.39,10.31 -11.02,18.37 -18.16,25.81 z m 202.71,349.83 c -2.96,2.86 -5.92,5.61 -9.18,8.16 l -0.1,0.11 c -4.9,3.77 -10.21,7.24 -16.43,9.79 4.29,-10.3 10.92,-18.36 18.06,-25.81 5.61,-5.41 11.63,-10.51 18.67,-14.49 2.24,-1.32 4.59,-2.55 7.14,-3.57 -4.39,10.31 -10.92,18.37 -18.16,25.81 z m 164.46,-346.56 h -0.1 c -1.84,1.02 -3.78,2.04 -5.82,2.85 2.86,-6.93 6.84,-12.75 11.22,-18.15 -1.73,5.1 -3.57,10.3 -5.3,15.3 z m -439.51,365.54 c -3.98,-7.96 -7.85,-16.12 -11.73,-24.69 4.39,3.16 8.37,6.73 12.24,10.41 7.14,7.44 13.78,15.5 18.06,25.81 -7.04,-2.96 -13.06,-6.94 -18.57,-11.53 z m 225.26,-693.229 c -7.14,-7.45 -13.77,-15.411 -18.05,-25.809 10.3,4.277 18.36,10.91 25.81,18.047 7.14,7.551 13.77,15.512 18.06,25.812 -10.31,-4.281 -18.37,-10.91 -25.82,-18.05 z m -225.26,693.229 c -3.98,-7.96 -7.85,-16.12 -11.73,-24.69 4.39,3.16 8.37,6.73 12.24,10.41 7.14,7.44 13.78,15.5 18.06,25.81 -7.04,-2.96 -13.06,-6.94 -18.57,-11.53"
         style="fill:#ffffff;fill-opacity:1;fill-rule:nonzero;stroke:none"
         transform="matrix(0.13333333,0,0,-0.13333333,0,560.88)" />
      <path
         id="path178"
         d="m 3491.73,1467.96 c 189.06,-232.47 395.62,-618.491 294.47,-693.21 -92.37,-68.219 -411.85,18.379 -610.77,108.629 -37.87,17.18 137.17,350.931 175.53,328.461 67.29,-39.42 120.38,-63.02 125.5,-64.72 10.98,-3.63 -46.13,74.24 -104.58,257.17 -59.41,185.93 11.78,196.55 119.85,63.67"
         style="fill:#f9a8b6;fill-opacity:1;fill-rule:nonzero;stroke:none"
         transform="matrix(0.13333333,0,0,-0.13333333,0,560.88)" />
      <path
         id="path179"
         d="m 2858.58,1263.64 c -2.31,-39.75 96.17,-37.16 96.17,-37.16 0,0 -24.16,-13.15 -31.98,-38.39 -8.95,-28.91 32.44,-55.63 32.44,-55.63 0,0 -21.69,-18.37 -27.27,-45.86 -5.8,-28.53 32.13,-61.45 32.13,-61.45 0,0 -10.81,-28.22 1.42,-55.439 20.9,-46.551 99.23,-51.66 147.09,-64.402 51.27,-13.649 125.58,-43.7 156.08,-59.028 l 109,352.429 c 0,0 -203.34,135.83 -262.16,136.16 -49.56,0.29 -249.37,-10.48 -252.92,-71.23"
         style="fill:#f9a8b6;fill-opacity:1;fill-rule:nonzero;stroke:none"
         transform="matrix(0.13333333,0,0,-0.13333333,0,560.88)" />
      <path
         id="path180"
         d="m 2955.64,1227.57 c 52.75,12.34 108.37,12.03 162.03,11.14 1.19,-0.02 1.14,-1.89 -0.05,-1.86 -53.36,1.51 -108.4,-11.22 -161.71,-11.85 -1.47,-0.02 -1.7,2.23 -0.27,2.57"
         style="fill:#17282f;fill-opacity:1;fill-rule:nonzero;stroke:none"
         transform="matrix(0.13333333,0,0,-0.13333333,0,560.88)" />
      <path
         id="path181"
         d="m 2956.86,1136.41 c 12.02,2.44 24.81,0.9 36.94,0.09 13.06,-0.87 26.1,-1.97 39.13,-3.27 26.08,-2.6 52.1,-5.79 78.01,-9.75 1.15,-0.18 1.17,-1.98 -0.05,-1.86 -26,2.55 -52.03,4.7 -78.11,6.15 -13.05,0.73 -26.11,1.34 -39.17,1.87 -12.15,0.49 -25.01,0 -36.83,3.19 -1.75,0.47 -1.73,3.22 0.08,3.58"
         style="fill:#17282f;fill-opacity:1;fill-rule:nonzero;stroke:none"
         transform="matrix(0.13333333,0,0,-0.13333333,0,560.88)" />
      <path
         id="path182"
         d="m 2961.17,1025.07 c 10.37,2.53 22.82,-0.44 33.26,-1.7 11.86,-1.43 23.72,-2.8 35.6,-4.1 23.74,-2.6 47.48,-5.18 71.3,-6.96 1.18,-0.08 1.14,-1.94 -0.05,-1.85 -24.21,1.67 -48.44,3.02 -72.63,4.91 -11.88,0.93 -23.76,1.92 -35.63,2.98 -10.09,0.9 -22.81,0.88 -32.02,5.53 l 0.17,1.19"
         style="fill:#17282f;fill-opacity:1;fill-rule:nonzero;stroke:none"
         transform="matrix(0.13333333,0,0,-0.13333333,0,560.88)" />
      <path
         id="path183"
         d="m 3383.26,1202.24 -97.85,-380.158 c 0,0 474.35,-151.141 530.73,-32.051 56.38,119.09 -202.41,586.039 -358.58,723.649 -156.17,137.62 -105.87,-68.78 -101.78,-85.28 18.18,-73.32 110.75,-267 110.75,-267 l -83.27,40.84"
         style="fill:#333d55;fill-opacity:1;fill-rule:nonzero;stroke:none"
         transform="matrix(0.13333333,0,0,-0.13333333,0,560.88)" />
      <path
         id="path184"
         d="m 3416.24,796.891 c -2.75,-2.961 -5.5,-5.922 -8.06,-9.082 3.78,-0.918 7.45,-1.84 11.33,-2.758 1.53,1.328 3.06,2.66 4.49,4.078 7.14,7.551 13.77,15.512 18.06,25.812 -10.31,-4.281 -18.37,-10.91 -25.82,-18.05 z m 234.14,312.489 c -7.45,7.14 -15.51,13.77 -25.81,18.05 4.29,-10.3 10.92,-18.36 18.06,-25.81 7.45,-7.14 15.51,-13.77 25.81,-18.05 -4.29,10.3 -10.92,18.36 -18.06,25.81 z m 144.26,-290.56 c -7.45,7.141 -15.41,13.77 -25.71,18.059 4.29,-10.297 10.92,-18.359 18.06,-25.809 7.45,-7.14 15.51,-13.769 25.81,-18.058 -4.39,10.301 -10.92,18.359 -18.16,25.808 z m -328.61,652.32 c -7.45,7.14 -15.4,13.78 -25.71,18.06 4.29,-10.3 10.92,-18.36 18.06,-25.81 7.45,-7.14 15.51,-13.77 25.81,-18.06 -4.39,10.31 -10.92,18.37 -18.16,25.81 z m -14.89,-453.38 c -10.31,-0.2 -20.71,-1.22 -31.02,-5.51 10.31,-4.18 20.71,-5.2 31.02,-5.4 10.4,0.2 20.71,1.22 31.01,5.4 -10.3,4.29 -20.61,5.31 -31.01,5.51 z m 164.56,-87.74 c -4.29,-10.399 -5.31,-20.711 -5.51,-31.11 0.2,-10.308 1.22,-20.609 5.51,-31.019 4.18,10.41 5.2,20.711 5.4,31.019 -0.2,10.399 -1.22,20.711 -5.4,31.11 z m -153.44,334.63 c -4.29,-10.3 -5.31,-20.61 -5.51,-31.01 0.2,-10.31 1.22,-20.61 5.51,-31.02 4.18,10.41 5.2,20.71 5.4,31.02 -0.2,10.4 -1.12,20.71 -5.4,31.01"
         style="fill:#ffffff;fill-opacity:1;fill-rule:nonzero;stroke:none"
         transform="matrix(0.13333333,0,0,-0.13333333,0,560.88)" />
      <path
         id="path185"
         d="m 3391.57,1201.48 c 54.2,-22.39 195.15,-102.29 225.32,-133.63 0.89,-0.93 -0.19,-2.38 -1.19,-1.59 -30.12,23.7 -204.38,120.81 -231.76,133.02 l -2.19,-4.23 c -1.01,-1.28 -1.69,-0.45 -1.6,0.77 l 2.57,9.26 c 0,0 2.93,-1.15 8.85,-3.6"
         style="fill:#17282f;fill-opacity:1;fill-rule:nonzero;stroke:none"
         transform="matrix(0.13333333,0,0,-0.13333333,0,560.88)" />
      <path
         id="path186"
         d="m 3421.26,984.301 c 6.63,26.539 32.44,132.879 36.82,159.769 l -0.77,0.25 c -9.2,-24.85 -37.74,-129.04 -44.44,-155.609 -13.35,-52.969 -27.88,-105.981 -35.34,-160.18 -0.13,-0.949 1.35,-1.551 1.7,-0.539 17.48,51.078 28.95,104 42.03,156.309"
         style="fill:#17282f;fill-opacity:1;fill-rule:nonzero;stroke:none"
         transform="matrix(0.13333333,0,0,-0.13333333,0,560.88)" />
      <path
         id="path187"
         d="m 3470.22,1158.89 c -13.35,33.51 -30.07,65.67 -44.91,98.54 -14.78,32.73 -30.34,65.33 -44,98.53 l -0.75,-0.29 c 8.21,-22.6 16.37,-45.08 25.2,-67.35 -2.82,3.6 -5.51,7.3 -8.11,11.05 -4.73,6.82 -9.06,13.93 -13.29,21.07 l -0.72,-0.39 c 3.16,-7.99 7.32,-15.4 12.2,-22.45 3.64,-5.26 7.82,-10.06 12.08,-14.79 3.65,-9.07 7.41,-18.1 11.38,-27.09 14.69,-33.23 25.73,-65.95 45.32,-96.62 0.65,-1.01 6.03,-1.28 5.6,-0.21"
         style="fill:#17282f;fill-opacity:1;fill-rule:nonzero;stroke:none"
         transform="matrix(0.13333333,0,0,-0.13333333,0,560.88)" />
      <path
         id="path188"
         d="m 3745.61,750.25 c -97.99,-13.77 -405.89,57.582 -458.36,71.25 0.99,5.602 0.9,7.582 2.24,15.492 0.18,1.028 -1.43,1.617 -1.7,0.528 -1.89,-7.45 -7.75,-22.2 -5.67,-23.141 24.95,-11.379 367.93,-89.578 463.42,-66.5 1.48,0.363 1.59,2.582 0.07,2.371"
         style="fill:#17282f;fill-opacity:1;fill-rule:nonzero;stroke:none"
         transform="matrix(0.13333333,0,0,-0.13333333,0,560.88)" />
      <path
         id="path189"
         d="m 2985.4,895.199 -400.71,-45.238 -139.75,558.559 400.7,45.25 139.76,-558.571"
         style="fill:#273e47;fill-opacity:1;fill-rule:nonzero;stroke:none"
         transform="matrix(0.13333333,0,0,-0.13333333,0,560.88)" />
      <path
         id="path190"
         d="m 2965.71,892.98 -400.7,-45.25 -139.75,558.57 400.7,45.25 139.75,-558.57"
         style="fill:#1e1e1e;fill-opacity:1;fill-rule:nonzero;stroke:none"
         transform="matrix(0.13333333,0,0,-0.13333333,0,560.88)" />
      <path
         id="path191"
         d="m 2640.06,1168.51 c 4.31,-21.31 25.26,-36.61 46.78,-34.18 21.53,2.43 35.48,21.67 31.17,42.99 -4.32,21.31 -25.26,36.61 -46.79,34.18 -21.53,-2.43 -35.48,-21.67 -31.16,-42.99"
         style="fill:#ffffff;fill-opacity:1;fill-rule:nonzero;stroke:none"
         transform="matrix(0.13333333,0,0,-0.13333333,0,560.88)" />
      <path
         id="path192"
         d="m 2426.79,1291.74 c -17.63,-46.39 -66.59,-106.16 -68.04,-143.02 -1.32,-33.27 26.98,-42.66 26.98,-42.66 0,0 -34.96,-21.08 -30.77,-54.75 2.16,-17.32 31.73,-29.09 31.73,-29.09 0,0 -27.28,-18.12 -21.71,-47.818 4.45,-23.672 33.41,-31.922 33.41,-31.922 0,0 -18.07,-29.57 -5.82,-52.238 24.86,-45.953 230.9,-29.429 256.65,49.02 12,36.558 -38.11,29.797 -38.11,29.797 0,0 69.7,27.132 67.39,69.691 -2.32,42.57 -66.89,29.85 -66.89,29.85 0,0 67.31,26.88 60.46,70.77 -7.14,45.69 -69.55,21.9 -69.55,21.9 0,0 43.33,34.73 30.38,67.13 -21.37,53.5 -102.59,-22.44 -148.73,-15.33 l -30.97,72.67 -26.41,6"
         style="fill:#f9a8b6;fill-opacity:1;fill-rule:nonzero;stroke:none"
         transform="matrix(0.13333333,0,0,-0.13333333,0,560.88)" />
      <path
         id="path193"
         d="m 2390.7,1223.52 c 12.85,45.38 -46.08,95.41 -40.02,140.57 8.2,61.09 80.5,7.65 102.52,-78.35 l 5.35,-69.77 -67.85,7.55"
         style="fill:#f9a8b6;fill-opacity:1;fill-rule:nonzero;stroke:none"
         transform="matrix(0.13333333,0,0,-0.13333333,0,560.88)" />
      <path
         id="path194"
         d="m 2402.77,940.512 -0.12,-1.082 c 69.1,-11.078 148.41,-2.078 211.24,29.672 2.07,1.039 1.27,4.839 -1.22,4.128 -71.02,-20.339 -135.67,-32.73 -209.9,-32.718"
         style="fill:#17282f;fill-opacity:1;fill-rule:nonzero;stroke:none"
         transform="matrix(0.13333333,0,0,-0.13333333,0,560.88)" />
      <path
         id="path195"
         d="m 2385.72,1021.71 0.04,-1.47 c 71.26,-11.03 160.31,1.57 228.42,46.69 2.34,1.54 2.89,5.27 0.06,3.7 -47.57,-26.57 -161.7,-49.27 -228.52,-48.92"
         style="fill:#17282f;fill-opacity:1;fill-rule:nonzero;stroke:none"
         transform="matrix(0.13333333,0,0,-0.13333333,0,560.88)" />
      <path
         id="path196"
         d="m 2606.45,1166.12 c -66.98,-40.74 -140.28,-55.91 -217.82,-60.66 -1.01,-0.06 -0.81,-1.49 0.04,-1.66 38.56,-8.01 87.67,0.17 125.34,9.77 36.08,9.19 66.79,24.74 93.87,50.21 1.05,0.98 0.01,3.21 -1.43,2.34"
         style="fill:#17282f;fill-opacity:1;fill-rule:nonzero;stroke:none"
         transform="matrix(0.13333333,0,0,-0.13333333,0,560.88)" />
      <path
         id="path197"
         d="m 3259.23,1413.31 c 43.76,-1.64 102.92,76.4 121.06,133.77 1.22,3.94 -11.6,40.28 -25.09,85.18 -8.08,27.28 -16.44,57.84 -22.05,86.28 -1.12,5.85 -169.83,-78.51 -169.83,-78.51 0,0 29.29,-56.16 38.77,-105.8 0.74,-4.16 1.09,-8.1 1.07,-11.91 l 0.13,-1.99 c 0.75,-22.88 13.64,-105.41 55.94,-107.02"
         style="fill:#f9a8b6;fill-opacity:1;fill-rule:nonzero;stroke:none"
         transform="matrix(0.13333333,0,0,-0.13333333,0,560.88)" />
      <path
         id="path198"
         d="m 3322.33,1715.64 c 1.21,-49.71 -5.79,-171.78 -100.55,-192.71 -6.59,-1.46 -12.74,-2.33 -18.44,-2.61 l -0.16,2 c -0.03,3.84 -0.32,7.74 -1.03,11.88 -9.51,49.73 -38.84,105.88 -38.84,105.88 0,0 121.7,60.85 159.02,75.56"
         style="fill:#17282f;fill-opacity:1;fill-rule:nonzero;stroke:none"
         transform="matrix(0.13333333,0,0,-0.13333333,0,560.88)" />
      <path
         id="path199"
         d="m 3363.5,1905.66 c 18.3,-64.87 -19.67,-250.34 -66.39,-290.88 -67.73,-58.78 -176.66,-62.23 -226.1,18.74 -47.93,78.48 5.84,319.32 57.84,355.96 76.6,53.97 207.61,12 234.65,-83.82"
         style="fill:#f9a8b6;fill-opacity:1;fill-rule:nonzero;stroke:none"
         transform="matrix(0.13333333,0,0,-0.13333333,0,560.88)" />
      <path
         id="path200"
         d="m 3178.8,1795.78 0.69,-1.33 c -3.36,-12.31 -5.14,-26.97 5.1,-33.77 l -0.27,-0.67 c -13.23,5.2 -10.68,24.64 -5.52,35.77"
         style="fill:#17282f;fill-opacity:1;fill-rule:nonzero;stroke:none"
         transform="matrix(0.13333333,0,0,-0.13333333,0,560.88)" />
      <path
         id="path201"
         d="m 3192.97,1806.08 c 20.31,-3.26 12.3,-43.64 -6.52,-40.62 -18.51,2.97 -10.5,43.35 6.52,40.62"
         style="fill:#17282f;fill-opacity:1;fill-rule:nonzero;stroke:none"
         transform="matrix(0.13333333,0,0,-0.13333333,0,560.88)" />
      <path
         id="path202"
         d="m 3108.71,1809.29 -1.18,-0.91 c -2.09,-12.59 -6.59,-26.65 -18.73,-28.56 l -0.04,-0.72 c 14.2,-0.8 19.99,17.94 19.95,30.19"
         style="fill:#17282f;fill-opacity:1;fill-rule:nonzero;stroke:none"
         transform="matrix(0.13333333,0,0,-0.13333333,0,560.88)" />
      <path
         id="path203"
         d="m 3100.13,1824.57 c -19.81,5.52 -29.39,-34.52 -11.04,-39.63 18.07,-5.03 27.65,35 11.04,39.63"
         style="fill:#17282f;fill-opacity:1;fill-rule:nonzero;stroke:none"
         transform="matrix(0.13333333,0,0,-0.13333333,0,560.88)" />
      <path
         id="path204"
         d="m 3212.53,1828.58 c -5.24,2.45 -9.66,5.58 -14.59,8.54 -5.56,3.34 -10.33,5.42 -13.22,11.55 -1.54,3.28 0.33,8.28 3.38,10.08 7.1,4.19 14.93,1.8 21.79,-1.95 7.44,-4.06 12.13,-9.1 15.33,-16.94 3.1,-7.59 -5.78,-14.51 -12.69,-11.28"
         style="fill:#17282f;fill-opacity:1;fill-rule:nonzero;stroke:none"
         transform="matrix(0.13333333,0,0,-0.13333333,0,560.88)" />
      <path
         id="path205"
         d="m 3085.25,1848.49 c 5.74,-0.64 11.15,-0.27 16.89,-0.31 6.49,-0.05 11.65,-0.76 17.3,2.96 3.03,2 4.04,7.23 2.38,10.36 -3.87,7.28 -11.8,9.31 -19.61,9.7 -8.46,0.41 -15.1,-1.44 -21.91,-6.46 -6.6,-4.86 -2.63,-15.4 4.95,-16.25"
         style="fill:#17282f;fill-opacity:1;fill-rule:nonzero;stroke:none"
         transform="matrix(0.13333333,0,0,-0.13333333,0,560.88)" />
      <path
         id="path206"
         d="m 3181.63,1678.92 c -2.56,-3.42 -4.94,-7.96 -9.44,-9.05 -4.33,-1.06 -9.78,0.12 -14.04,1.05 l -0.45,-0.73 c 4.03,-4.32 11.38,-6.28 17.06,-4.34 5.55,1.89 7.6,7.26 8.17,12.69 l -1.3,0.38"
         style="fill:#17282f;fill-opacity:1;fill-rule:nonzero;stroke:none"
         transform="matrix(0.13333333,0,0,-0.13333333,0,560.88)" />
      <path
         id="path207"
         d="m 3170.91,1715.47 c -9.16,-9.47 -20.63,-13.36 -32.19,-13.31 -5.17,-0.02 -10.43,0.85 -15.46,2.34 -1,0.22 -1.99,0.53 -2.86,0.91 -0.89,0.29 -1.69,0.56 -2.66,0.97 -1.41,0.5 -1.98,1.86 -1.95,3.29 l 0.02,0.09 0.37,1.26 0.02,0.09 0.24,1.1 c 1.65,9.68 5.49,24.14 5.49,24.14 -3.87,-1.07 -23.41,-5.58 -22.13,-0.6 10.75,41.16 22.71,86.93 42.09,125.61 0.58,1.31 2.62,0.58 2.22,-0.77 -8.76,-39.96 -24.5,-78.12 -33.94,-118.12 6.16,1.04 16.29,3.21 21.31,2.11 1.29,-0.66 -7.92,-27.81 -8.31,-32.22 l -0.01,-0.48 c 15.77,-5.27 28.94,-2.8 46.8,4.94 1.07,0.53 1.9,-0.51 0.95,-1.35"
         style="fill:#17282f;fill-opacity:1;fill-rule:nonzero;stroke:none"
         transform="matrix(0.13333333,0,0,-0.13333333,0,560.88)" />
      <path
         id="path208"
         d="m 3133.7,1703.42 c 0,0 7.52,-11.38 18.42,-15.91 4.01,-1.69 8.39,-2.51 13.07,-1.52 9.62,1.99 10.32,10.68 8.97,18.22 -1.08,6.2 -3.64,11.63 -3.64,11.63 0,0 -14.54,-12.23 -36.82,-12.42"
         style="fill:#17282f;fill-opacity:1;fill-rule:nonzero;stroke:none"
         transform="matrix(0.13333333,0,0,-0.13333333,0,560.88)" />
      <path
         id="path209"
         d="m 3152.12,1687.51 c 4.01,-1.69 8.39,-2.51 13.07,-1.52 9.62,1.99 10.32,10.68 8.97,18.22 -10.22,-0.5 -20.65,-6.87 -22.04,-16.7"
         style="fill:#f578ba;fill-opacity:1;fill-rule:nonzero;stroke:none"
         transform="matrix(0.13333333,0,0,-0.13333333,0,560.88)" />
      <path
         id="path210"
         d="m 3370.84,1760.51 c -49.23,-2.41 -73.65,56.74 -61.15,103.66 0,0 -131.07,-14.58 -135.12,90.49 0,0 -26.65,-45 -85.96,-45.31 l -15.43,-38.37 c -13.32,4.16 -26.79,42.57 6.64,71.76 0,0 3.37,52.26 42.59,82.84 39.22,30.58 77.1,9.13 77.1,9.13 0,0 31.19,24.94 79.22,17.76 48.03,-7.18 66.92,-51.51 66.92,-51.51 0,0 64.49,-13.74 74.54,-59.97 10.05,-46.23 -14.37,-76.56 -14.37,-76.56 0,0 15.87,-18.41 6.79,-57.49 -5.84,-25.12 -26.99,-45.71 -41.77,-46.43"
         style="fill:#17282f;fill-opacity:1;fill-rule:nonzero;stroke:none"
         transform="matrix(0.13333333,0,0,-0.13333333,0,560.88)" />
      <path
         id="path211"
         d="m 3177.66,1963.91 c -1.04,-8.54 -1.56,-17.12 -0.83,-25.62 0.31,-8.5 1.9,-16.85 4.22,-24.88 4.94,-15.98 15.1,-30.08 29.47,-38.31 13.91,-9.34 31.31,-11.13 47.93,-13.11 8.47,0.08 17.02,-0.45 25.54,0.11 8.53,0.68 17.06,1.56 25.7,2.07 -8.4,-1.86 -16.91,-3.34 -25.42,-5.03 -8.57,-1.16 -17.3,-1.17 -25.99,-1.81 -17.24,1.07 -35.44,2.91 -50.89,12.6 -15.37,9.33 -26.62,25.02 -30.81,42.22 -4.14,17.2 -3.45,35.14 1.08,51.76"
         style="fill:#17282f;fill-opacity:1;fill-rule:nonzero;stroke:none"
         transform="matrix(0.13333333,0,0,-0.13333333,0,560.88)" />
      <path
         id="path212"
         d="m 3109,1904.69 c 14.66,4.99 28.39,11.4 40.1,20.51 5.99,4.38 11.04,9.82 15.64,15.64 4.8,5.77 7.88,12.65 11.4,19.62 -1.09,-7.64 -3.24,-15.46 -7.53,-22.22 -4,-6.89 -9.45,-13 -15.8,-17.82 -6.36,-4.81 -13.37,-8.73 -20.83,-11.31 -7.43,-2.6 -15.16,-4.4 -22.98,-4.42"
         style="fill:#17282f;fill-opacity:1;fill-rule:nonzero;stroke:none"
         transform="matrix(0.13333333,0,0,-0.13333333,0,560.88)" />
      <path
         id="path213"
         d="m 3320.49,1754.76 c 0,0 44.56,58.44 71.25,42.3 26.68,-16.13 -8.56,-102.04 -41.1,-112.65 -32.55,-10.61 -42.96,19.32 -42.96,19.32 l 12.81,51.03"
         style="fill:#f9a8b6;fill-opacity:1;fill-rule:nonzero;stroke:none"
         transform="matrix(0.13333333,0,0,-0.13333333,0,560.88)" />
      <path
         id="path214"
         d="m 3381.02,1772.69 0.14,-0.87 c -22.85,-8.18 -35.55,-28.53 -44.72,-49.79 7.02,8.04 16.31,12.22 27.13,3.8 l -0.66,-1.17 c -9.13,2.35 -15.84,1.03 -22.36,-6.09 -4.62,-5.04 -7.9,-11.52 -11.3,-17.41 -1.14,-1.97 -4.72,-0.75 -3.86,1.54 l 0.2,0.51 c 0.62,28.68 24.55,67.86 55.43,69.48"
         style="fill:#17282f;fill-opacity:1;fill-rule:nonzero;stroke:none"
         transform="matrix(0.13333333,0,0,-0.13333333,0,560.88)" />
      <path
         id="path215"
         d="m 3252.67,1734.53 c -1.58,0 -2.9,1.25 -2.97,2.85 -0.07,1.64 1.2,3.03 2.84,3.1 0.04,0 0.09,0 0.13,0 1.59,0 2.9,-1.24 2.97,-2.84 0.07,-1.64 -1.2,-3.03 -2.84,-3.1 -0.04,-0.01 -0.09,-0.01 -0.13,-0.01"
         style="fill:#d88a90;fill-opacity:1;fill-rule:nonzero;stroke:none"
         transform="matrix(0.13333333,0,0,-0.13333333,0,560.88)" />
      <path
         id="path216"
         d="m 3190.27,1734.76 c -1.58,0 -2.9,1.25 -2.97,2.85 -0.07,1.64 1.2,3.03 2.84,3.1 0.05,0 0.09,0 0.14,0 1.58,0 2.89,-1.25 2.96,-2.84 0.08,-1.64 -1.2,-3.03 -2.84,-3.1 -0.04,-0.01 -0.09,-0.01 -0.13,-0.01"
         style="fill:#d88a90;fill-opacity:1;fill-rule:nonzero;stroke:none"
         transform="matrix(0.13333333,0,0,-0.13333333,0,560.88)" />
      <path
         id="path217"
         d="m 3213.15,1713.85 c -1.58,0 -2.9,1.25 -2.97,2.85 -0.07,1.64 1.2,3.03 2.84,3.1 0.05,0 0.09,0 0.14,0 1.58,0 2.9,-1.25 2.97,-2.84 0.07,-1.64 -1.2,-3.03 -2.84,-3.11 -0.05,0 -0.09,0 -0.14,0"
         style="fill:#d88a90;fill-opacity:1;fill-rule:nonzero;stroke:none"
         transform="matrix(0.13333333,0,0,-0.13333333,0,560.88)" />
      <path
         id="path218"
         d="m 3249.93,1759.05 c -1.58,0 -2.9,1.25 -2.97,2.85 -0.07,1.64 1.2,3.03 2.84,3.1 0.05,0 0.09,0 0.14,0 1.58,0 2.9,-1.25 2.97,-2.84 0.07,-1.64 -1.2,-3.03 -2.84,-3.1 -0.05,-0.01 -0.09,-0.01 -0.14,-0.01"
         style="fill:#d88a90;fill-opacity:1;fill-rule:nonzero;stroke:none"
         transform="matrix(0.13333333,0,0,-0.13333333,0,560.88)" />
      <path
         id="path219"
         d="m 3221.27,1741.02 c -1.58,0 -2.9,1.25 -2.97,2.85 -0.07,1.64 1.2,3.03 2.84,3.1 0.05,0 0.09,0 0.14,0 1.58,0 2.89,-1.25 2.96,-2.84 0.08,-1.64 -1.19,-3.03 -2.84,-3.1 -0.04,-0.01 -0.09,-0.01 -0.13,-0.01"
         style="fill:#d88a90;fill-opacity:1;fill-rule:nonzero;stroke:none"
         transform="matrix(0.13333333,0,0,-0.13333333,0,560.88)" />
      <path
         id="path220"
         d="m 3066.22,1777.45 c -1.58,0 -2.9,1.25 -2.97,2.84 -0.07,1.64 1.2,3.03 2.84,3.1 0.05,0.01 0.09,0.01 0.13,0.01 1.59,0 2.9,-1.25 2.97,-2.85 0.08,-1.64 -1.2,-3.03 -2.84,-3.1 -0.04,0 -0.09,0 -0.13,0"
         style="fill:#d88a90;fill-opacity:1;fill-rule:nonzero;stroke:none"
         transform="matrix(0.13333333,0,0,-0.13333333,0,560.88)" />
      <path
         id="path221"
         d="m 3090.17,1761.54 c -1.59,0 -2.9,1.25 -2.98,2.85 -0.07,1.64 1.2,3.03 2.85,3.1 0.04,0 0.09,0 0.13,0 1.58,0 2.9,-1.25 2.97,-2.84 0.07,-1.64 -1.2,-3.03 -2.84,-3.1 -0.05,-0.01 -0.09,-0.01 -0.13,-0.01"
         style="fill:#d88a90;fill-opacity:1;fill-rule:nonzero;stroke:none"
         transform="matrix(0.13333333,0,0,-0.13333333,0,560.88)" />
      <path
         id="path222"
         d="m 3085.08,1741.68 c -1.58,0 -2.9,1.25 -2.97,2.85 -0.07,1.64 1.2,3.03 2.84,3.1 0.05,0 0.09,0 0.14,0 1.58,0 2.9,-1.24 2.97,-2.84 0.07,-1.64 -1.2,-3.03 -2.84,-3.1 -0.05,-0.01 -0.09,-0.01 -0.14,-0.01"
         style="fill:#d88a90;fill-opacity:1;fill-rule:nonzero;stroke:none"
         transform="matrix(0.13333333,0,0,-0.13333333,0,560.88)" />
      <path
         id="path223"
         d="m 3064.26,1754.45 c -1.59,0 -2.91,1.24 -2.97,2.84 -0.08,1.64 1.19,3.03 2.84,3.1 0.04,0 0.09,0.01 0.13,0.01 1.58,0 2.9,-1.25 2.97,-2.85 0.07,-1.64 -1.2,-3.03 -2.84,-3.1 -0.05,0 -0.09,0 -0.13,0"
         style="fill:#d88a90;fill-opacity:1;fill-rule:nonzero;stroke:none"
         transform="matrix(0.13333333,0,0,-0.13333333,0,560.88)" />
    </g>
  </g>
</svg>
